<svg width="516" height="516" viewBox="0 0 516 516" fill="none" xmlns="http://www.w3.org/2000/svg">
<path d="M176.175 373.682C206.481 373.682 231.049 349.08 231.049 318.733C231.049 288.385 206.481 263.783 176.175 263.783C145.869 263.783 121.301 288.385 121.301 318.733C121.301 349.08 145.869 373.682 176.175 373.682Z" fill="#0F77FF"/>
<path d="M376.933 357.594C398.362 336.135 398.362 301.343 376.933 279.884C355.503 258.425 320.759 258.425 299.329 279.884C277.9 301.343 277.9 336.135 299.329 357.594C320.759 379.053 355.503 379.053 376.933 357.594Z" fill="#0F77FF"/>
<path d="M225.548 388.612C231.355 398.304 245.971 402.941 257.879 403.236H259.215C272.691 403.236 283.926 398.071 290.027 388.931C291.147 387.132 291.525 384.966 291.081 382.893C290.636 380.82 289.404 379.001 287.645 377.82C285.885 376.64 283.737 376.191 281.653 376.568C279.569 376.945 277.713 378.118 276.477 379.84C271.981 386.514 262.253 386.956 258.284 386.956C248.654 386.723 241.132 382.846 239.539 380.258C238.425 378.4 236.619 377.061 234.519 376.537C232.419 376.012 230.197 376.344 228.341 377.46C226.486 378.576 225.149 380.385 224.626 382.488C224.102 384.591 224.434 386.816 225.548 388.674V388.612Z" fill="#0F77FF"/>
<path d="M510.785 291.718C510.683 291.13 510.519 290.554 510.295 290C506.08 279.523 489.32 270.371 479.446 265.771C479.85 223.47 482.643 191.057 484.702 167.122C487.997 128.796 489.602 109.548 477.841 97.9665C464.952 85.3057 442.532 87.6857 388.406 93.4272C378.262 94.5068 366.758 95.7337 354.102 96.9727C353.8 97.0108 353.495 96.9352 353.246 96.7606C352.997 96.586 352.822 96.3249 352.754 96.0281L336.533 29.1051C335.723 25.6205 334.145 22.3613 331.915 19.5658C329.685 16.7703 326.86 14.5092 323.645 12.9479C320.149 11.2713 316.332 10.3755 312.456 10.3226C308.581 10.2696 304.74 11.0608 301.2 12.6412L290.48 16.4566C246.13 32.4053 179.103 56.3896 124.719 95.5864C60.2891 142.034 28.0802 199.523 28.9133 266.519C22.7876 270.776 11.357 279.204 5.14559 287.51C-1.77645 296.785 -0.220519 325.075 1.32316 341.122C2.27876 351.133 6.22371 384.932 15.8901 399.678C28.0189 418.08 54.2981 423.368 64.8221 424.779C76.5957 442.592 93.1106 458.111 113.472 470.797C113.472 470.797 125.319 477.52 130.526 480.243C132.744 481.347 135.01 482.39 137.301 483.421C149.97 488.895 162.999 493.49 176.297 497.173C202.27 503.942 228.984 507.441 255.821 507.589H259.203C271.557 507.593 283.903 506.946 296.19 505.651C327.59 501.32 348.564 495.836 359.615 492.426C362.751 491.407 365.863 490.365 368.914 489.248C368.914 489.248 379.18 485.469 390.795 480.145L393.625 478.796C398.832 476.342 404.161 473.618 408.841 470.834L408.718 470.625C430.024 458.111 447.298 442.715 459.292 425.073C483.403 416.694 500.334 396.562 508.359 366.652C514.252 344.68 515.159 316.671 510.785 291.718ZM30.2119 390.256C18.6711 372.749 14.6282 306.636 19.0142 297.668C22.5303 293.031 29.1093 287.645 34.6102 283.584C34.7572 309.814 38.3958 358.739 59.9583 406.585C49.6916 404.328 36.3009 399.494 30.2119 390.256ZM444.725 415.946C413.435 461.448 341.409 490.438 259.264 490.438H256.005C218.528 490.095 183.722 483.494 154.318 471.815C152.893 470.974 151.354 470.342 149.749 469.938C145.02 467.938 140.413 465.828 135.978 463.559C133.993 462.773 133.993 462.773 128.995 459.792C106.587 447.168 88.749 431.121 77.1837 412.216C77.0018 411.928 76.8055 411.65 76.5957 411.382C62.4208 383.521 55.0455 354.298 51.2966 329.357C56.9284 332.71 63.2897 334.643 69.8329 334.988C73.5083 358.567 82.7949 389.25 105.595 412.854C139.801 448.26 195.74 468.368 259.644 468.368C261.285 468.368 262.927 468.368 264.544 468.368C329.379 467.325 389.815 446.162 418.532 414.461C436.064 395.102 444.039 365.02 446.159 334.804C450.719 334.24 455.149 332.895 459.255 330.829C457.504 361.438 453.497 395.004 444.725 415.946ZM96.1366 235.603C112.492 213.741 127.99 207.313 143.917 207.313C154.613 207.313 165.528 210.208 177.069 213.263L213.946 222.893C253.077 233.26 273.769 228.954 311.234 221.164L354.114 212.784C384.608 206.43 410.47 219.986 421.619 248.141C435.022 282.002 439.665 366.247 407.04 402.279C381.19 430.815 323.375 450.64 263.16 451.609C201.045 452.603 146.772 433.931 114.403 400.377C87.4504 372.479 81.5697 332.681 80.4671 311.445C78.7887 280.848 85.1104 250.362 96.1244 235.652L96.1366 235.603ZM459.55 324.977C455.524 327.379 451.08 328.994 446.453 329.737C448.082 296.503 442.863 263.808 435.721 245.761C422.134 211.41 389.435 194.235 352.509 201.866L309.629 210.245C273.01 217.864 254.621 221.691 218.638 212.159L181.786 202.528C152.383 194.75 119.12 185.929 86.1518 229.997C73.1285 247.405 65.8635 280.738 67.6399 314.942C67.8727 319.309 68.2892 324.413 69.0121 330.007C62.2358 329.377 55.7595 326.908 50.2797 322.867C45.9795 289.816 47.9519 265.771 48.0009 265.317C48.0824 264.365 47.9497 263.407 47.6126 262.513C47.2755 261.619 46.7425 260.812 46.053 260.152C49.0056 121.325 209.205 63.8732 296.263 32.6629L307.289 28.688C307.486 28.6231 307.678 28.5452 307.865 28.4549C309.146 27.8472 310.543 27.5248 311.96 27.51C313.377 27.4952 314.78 27.7882 316.074 28.369C317.024 28.8288 317.859 29.4981 318.514 30.3267C319.17 31.1553 319.63 32.1218 319.859 33.1536L336.031 100.064C337.091 104.381 339.667 108.172 343.29 110.743C346.912 113.313 351.337 114.492 355.756 114.062C368.448 112.836 379.989 111.609 390.17 110.517C432.903 105.978 458.704 103.242 465.822 110.222C471.85 116.148 470.159 135.838 467.599 165.65C465.7 187.733 463.176 217.029 462.441 254.656C461.679 255.282 461.072 256.077 460.669 256.977C460.265 257.877 460.075 258.859 460.113 259.845C460.15 260.459 461.24 290.123 459.55 324.977ZM461.767 405.248C472.095 367.388 473.528 312.513 473.406 281.928C483.207 286.7 492.052 292.564 494.086 295.84C499.281 327.038 498.166 385.202 461.767 405.248Z" fill="#0F77FF"/>
</svg>
