<svg width="458" height="745" viewBox="0 0 458 745" fill="none" xmlns="http://www.w3.org/2000/svg">
<g style="mix-blend-mode:color-burn" opacity="0.3" clip-path="url(#clip0_635_18668)">
<path opacity="0.563" d="M4.93799 568.899H22.989V586.95H4.93799V568.899Z" fill="#161518"/>
<path opacity="0.554" d="M36.675 569.195H54.135V586.655H36.675V569.195Z" fill="#161518"/>
<path opacity="0.66" d="M100.546 570.181H116.033V585.668H100.546V570.181Z" fill="#161518"/>
<path opacity="0.598" d="M164.96 571.71H177.389V584.139H164.96V571.71Z" fill="#161518"/>
<path opacity="0.675" d="M228.978 572.844H239.138V583.004H228.978V572.844Z" fill="#161518"/>
<path opacity="0.565" d="M293.096 574.078H300.79V581.772H293.096V574.078Z" fill="#161518"/>
<path opacity="0.21" d="M36.479 537.555H54.333V555.409H36.479V537.555Z" fill="#161518"/>
<path opacity="0.315" d="M68.5121 538.147H85.1831V554.817H68.5121V538.147Z" fill="#161518"/>
<path opacity="0.71" d="M100.3 538.492H116.28V554.472H100.3V538.492Z" fill="#161518"/>
<path opacity="0.341" d="M164.565 539.873H177.783V553.091H164.565V539.873Z" fill="#161518"/>
<path opacity="0.657" d="M228.535 540.958H239.583V552.006H228.535V540.958Z" fill="#161518"/>
<path opacity="0.833" d="M324.44 542.537H332.331V550.428H324.44V542.537Z" fill="#161518"/>
<path opacity="0.509" d="M4.44394 505.521H23.4819V524.559H4.44394V505.521Z" fill="#161518"/>
<path opacity="0.651" d="M36.1829 505.817H54.6289V524.263H36.1829V505.817Z" fill="#161518"/>
<path opacity="0.316" d="M99.8561 506.606H116.724V523.474H99.8561V506.606Z" fill="#161518"/>
<path opacity="0.378" d="M131.84 507.149H147.623V522.932H131.84V507.149Z" fill="#161518"/>
<path opacity="0.206" d="M195.761 508.185H209.472V521.896H195.761V508.185Z" fill="#161518"/>
<path opacity="0.72" d="M259.68 509.221H271.32V520.861H259.68V509.221Z" fill="#161518"/>
<path opacity="0.778" d="M355.832 511.045H363.822V519.035H355.832V511.045Z" fill="#161518"/>
<path opacity="0.644" d="M4.34607 473.981H23.5811V493.216H4.34607V473.981Z" fill="#161518"/>
<path opacity="0.173" d="M36.0339 474.227H54.7759V492.969H36.0339V474.227Z" fill="#161518"/>
<path opacity="0.149" d="M67.9209 474.671H85.7749V492.525H67.9209V474.671Z" fill="#161518"/>
<path opacity="0.616" d="M131.643 475.509H147.82V491.687H131.643V475.509Z" fill="#161518"/>
<path opacity="0.825" d="M163.678 476.101H178.671V491.095H163.678V476.101Z" fill="#161518"/>
<path opacity="0.345" d="M227.598 477.137H240.52V490.059H227.598V477.137Z" fill="#161518"/>
<path opacity="0.888" d="M291.418 478.074H302.466V489.122H291.418V478.074Z" fill="#161518"/>
<path opacity="0.38" d="M387.274 479.603H395.264V487.593H387.274V479.603Z" fill="#161518"/>
<path opacity="0.579" d="M4.198 442.391H23.729V461.922H4.198V442.391Z" fill="#161518"/>
<path opacity="0.928" d="M35.7879 442.538H55.0229V461.774H35.7879V442.538Z" fill="#161518"/>
<path opacity="0.884" d="M67.674 442.983H86.021V461.33H67.674V442.983Z" fill="#161518"/>
<path opacity="0.265" d="M99.3131 443.18H117.266V461.133H99.3131V443.18Z" fill="#161518"/>
<path opacity="0.503" d="M163.283 444.265H179.066V460.047H163.283V444.265Z" fill="#161518"/>
<path opacity="0.557" d="M227.153 445.251H240.963V459.061H227.153V445.251Z" fill="#161518"/>
<path opacity="0.496" d="M290.926 446.139H302.96V458.173H290.926V446.139Z" fill="#161518"/>
<path opacity="0.88" d="M354.747 447.076H364.907V457.236H354.747V447.076Z" fill="#161518"/>
<path opacity="0.531" d="M418.814 448.26H426.607V456.052H418.814V448.26Z" fill="#161518"/>
<path opacity="0.543" d="M4.14905 410.899H23.7791V430.529H4.14905V410.899Z" fill="#161518"/>
<path opacity="0.937" d="M35.7879 411.096H55.0229V430.332H35.7879V411.096Z" fill="#161518"/>
<path opacity="0.759" d="M99.215 411.639H117.365V429.789H99.215V411.639Z" fill="#161518"/>
<path opacity="0.572" d="M131.101 412.083H148.363V429.345H131.101V412.083Z" fill="#161518"/>
<path opacity="0.22" d="M163.086 412.625H179.263V428.803H163.086V412.625Z" fill="#161518"/>
<path opacity="0.124" d="M194.873 412.97H210.36V428.457H194.873V412.97Z" fill="#161518"/>
<path opacity="0.528" d="M258.743 413.957H272.257V427.471H258.743V413.957Z" fill="#161518"/>
<path opacity="0.619" d="M322.466 414.796H334.303V426.633H322.466V414.796Z" fill="#161518"/>
<path opacity="0.814" d="M386.287 415.733H396.25V425.696H386.287V415.733Z" fill="#161518"/>
<path opacity="0.674" d="M4.09891 379.408H23.8269V399.136H4.09891V379.408Z" fill="#161518"/>
<path opacity="0.415" d="M35.739 379.605H55.073V398.938H35.739V379.605Z" fill="#161518"/>
<path opacity="0.108" d="M67.4271 379.852H86.2681V398.692H67.4271V379.852Z" fill="#161518"/>
<path opacity="0.509" d="M99.017 380H117.562V398.545H99.017V380Z" fill="#161518"/>
<path opacity="0.137" d="M162.74 380.838H179.608V397.706H162.74V380.838Z" fill="#161518"/>
<path opacity="0.47" d="M226.611 381.824H241.506V396.719H226.611V381.824Z" fill="#161518"/>
<path opacity="0.629" d="M290.432 382.761H303.453V395.782H290.432V382.761Z" fill="#161518"/>
<path opacity="0.556" d="M354.105 383.55H365.548V394.993H354.105V383.55Z" fill="#161518"/>
<path opacity="0.847" d="M418.124 384.685H427.298V393.859H418.124V384.685Z" fill="#161518"/>
<path opacity="0.505" d="M4.09891 347.966H23.8269V367.694H4.09891V347.966Z" fill="#161518"/>
<path opacity="0.916" d="M35.739 348.163H55.073V367.497H35.739V348.163Z" fill="#161518"/>
<path opacity="0.696" d="M67.3779 348.36H86.3169V367.299H67.3779V348.36Z" fill="#161518"/>
<path opacity="0.911" d="M98.968 348.508H117.612V367.151H98.968V348.508Z" fill="#161518"/>
<path opacity="0.904" d="M130.755 348.853H148.708V366.806H130.755V348.853Z" fill="#161518"/>
<path opacity="0.23" d="M162.592 349.248H179.756V366.412H162.592V349.248Z" fill="#161518"/>
<path opacity="0.248" d="M194.38 349.593H210.853V366.066H194.38V349.593Z" fill="#161518"/>
<path opacity="0.405" d="M258.25 350.579H272.751V365.08H258.25V350.579Z" fill="#161518"/>
<path opacity="0.151" d="M322.022 351.467H334.747V364.192H322.022V351.467Z" fill="#161518"/>
<path opacity="0.736" d="M385.695 352.256H396.842V363.402H385.695V352.256Z" fill="#161518"/>
<path opacity="0.313" d="M450.355 354.032H457.951V361.627H450.355V354.032Z" fill="#161518"/>
<path opacity="0.348" d="M4.14905 316.573H23.7791V336.203H4.14905V316.573Z" fill="#161518"/>
<path opacity="0.629" d="M35.739 316.721H55.073V336.055H35.739V316.721Z" fill="#161518"/>
<path opacity="0.451" d="M67.3779 316.918H86.3169V335.857H67.3779V316.918Z" fill="#161518"/>
<path opacity="0.207" d="M130.607 317.263H148.856V335.512H130.607V317.263Z" fill="#161518"/>
<path opacity="0.483" d="M194.133 317.904H211.099V334.871H194.133V317.904Z" fill="#161518"/>
<path opacity="0.745" d="M226.266 318.595H241.851V334.18H226.266V318.595Z" fill="#161518"/>
<path opacity="0.35" d="M290.136 319.581H303.748V333.194H290.136V319.581Z" fill="#161518"/>
<path opacity="0.931" d="M353.81 320.37H365.844V332.405H353.81V320.37Z" fill="#161518"/>
<path opacity="0.855" d="M417.779 321.456H427.643V331.32H417.779V321.456Z" fill="#161518"/>
<path opacity="0.517" d="M4.198 285.18H23.729V304.711H4.198V285.18Z" fill="#161518"/>
<path opacity="0.641" d="M35.739 285.278H55.073V304.612H35.739V285.278Z" fill="#161518"/>
<path opacity="0.287" d="M67.3779 285.476H86.3169V304.415H67.3779V285.476Z" fill="#161518"/>
<path opacity="0.743" d="M98.9191 285.575H117.661V304.317H98.9191V285.575Z" fill="#161518"/>
<path opacity="0.317" d="M130.559 285.772H148.906V304.119H130.559V285.772Z" fill="#161518"/>
<path opacity="0.354" d="M162.296 286.067H180.052V303.823H162.296V286.067Z" fill="#161518"/>
<path opacity="0.359" d="M226.069 286.956H242.049V302.936H226.069V286.956Z" fill="#161518"/>
<path opacity="0.841" d="M257.856 287.301H273.145V302.591H257.856V287.301Z" fill="#161518"/>
<path opacity="0.773" d="M321.726 288.287H335.043V301.603H321.726V288.287Z" fill="#161518"/>
<path opacity="0.13" d="M385.548 289.224H396.99V300.666H385.548V289.224Z" fill="#161518"/>
<path opacity="0.195" d="M450.306 291.099H458V298.793H450.306V291.099Z" fill="#161518"/>
<path opacity="0.466" d="M4.198 253.738H23.729V273.269H4.198V253.738Z" fill="#161518"/>
<path opacity="0.223" d="M35.7879 253.886H55.0229V273.121H35.7879V253.886Z" fill="#161518"/>
<path opacity="0.619" d="M98.869 254.083H117.71V272.924H98.869V254.083Z" fill="#161518"/>
<path opacity="0.503" d="M162.247 254.576H180.101V272.43H162.247V254.576Z" fill="#161518"/>
<path opacity="0.213" d="M193.936 254.823H211.297V272.184H193.936V254.823Z" fill="#161518"/>
<path opacity="0.977" d="M257.856 255.859H273.145V271.148H257.856V255.859Z" fill="#161518"/>
<path opacity="0.43" d="M321.726 256.845H335.043V270.161H321.726V256.845Z" fill="#161518"/>
<path opacity="0.883" d="M385.646 257.881H396.891V269.126H385.646V257.881Z" fill="#161518"/>
<path opacity="0.473" d="M4.29587 222.394H23.6299V241.728H4.29587V222.394Z" fill="#161518"/>
<path opacity="0.964" d="M35.8371 222.493H54.9741V241.63H35.8371V222.493Z" fill="#161518"/>
<path opacity="0.862" d="M67.4271 222.641H86.2681V241.482H67.4271V222.641Z" fill="#161518"/>
<path opacity="0.613" d="M98.9191 222.69H117.661V241.432H98.9191V222.69Z" fill="#161518"/>
<path opacity="0.994" d="M130.509 222.838H148.955V241.285H130.509V222.838Z" fill="#161518"/>
<path opacity="0.183" d="M193.985 223.43H211.247V240.693H193.985V223.43Z" fill="#161518"/>
<path opacity="0.293" d="M226.069 224.071H242.049V240.051H226.069V224.071Z" fill="#161518"/>
<path opacity="0.556" d="M290.087 225.205H303.798V238.917H290.087V225.205Z" fill="#161518"/>
<path opacity="0.903" d="M354.105 226.34H365.548V237.782H354.105V226.34Z" fill="#161518"/>
<path opacity="0.848" d="M418.322 227.671H427.101V236.451H418.322V227.671Z" fill="#161518"/>
</g>
<g style="mix-blend-mode:color-burn" opacity="0.3" clip-path="url(#clip1_635_18668)">
<path opacity="0.563" d="M-2.56255 207.69H8.21729V218.498H-2.56255V207.69Z" fill="#161518"/>
<path opacity="0.554" d="M16.3902 207.868H26.8171V218.321H16.3902V207.868Z" fill="#161518"/>
<path opacity="0.66" d="M54.5331 208.458H63.7817V217.73H54.5331V208.458Z" fill="#161518"/>
<path opacity="0.598" d="M93.0004 209.374H100.423V216.815H93.0004V209.374Z" fill="#161518"/>
<path opacity="0.675" d="M131.231 210.052H137.299V216.135H131.231V210.052Z" fill="#161518"/>
<path opacity="0.565" d="M169.521 210.791H174.116V215.397H169.521V210.791Z" fill="#161518"/>
<path opacity="0.21" d="M16.2731 188.925H26.9353V199.614H16.2731V188.925Z" fill="#161518"/>
<path opacity="0.315" d="M35.4029 189.279H45.3586V199.26H35.4029V189.279Z" fill="#161518"/>
<path opacity="0.71" d="M54.3861 189.485H63.9292V199.053H54.3861V189.485Z" fill="#161518"/>
<path opacity="0.341" d="M92.7646 190.312H100.658V198.226H92.7646V190.312Z" fill="#161518"/>
<path opacity="0.657" d="M130.966 190.962H137.564V197.576H130.966V190.962Z" fill="#161518"/>
<path opacity="0.833" d="M188.24 191.907H192.952V196.632H188.24V191.907Z" fill="#161518"/>
<path opacity="0.509" d="M-2.85776 169.746H8.51147V181.144H-2.85776V169.746Z" fill="#161518"/>
<path opacity="0.651" d="M16.0964 169.923H27.1121V180.967H16.0964V169.923Z" fill="#161518"/>
<path opacity="0.316" d="M54.1212 170.395H64.1946V180.494H54.1212V170.395Z" fill="#161518"/>
<path opacity="0.378" d="M73.2216 170.72H82.647V180.17H73.2216V170.72Z" fill="#161518"/>
<path opacity="0.206" d="M111.394 171.341H119.582V179.549H111.394V171.341Z" fill="#161518"/>
<path opacity="0.72" d="M149.566 171.961H156.517V178.93H149.566V171.961Z" fill="#161518"/>
<path opacity="0.778" d="M206.987 173.053H211.758V177.837H206.987V173.053Z" fill="#161518"/>
<path opacity="0.644" d="M-2.91608 150.863H8.5708V162.379H-2.91608V150.863Z" fill="#161518"/>
<path opacity="0.173" d="M16.0075 151.01H27.2V162.231H16.0075V151.01Z" fill="#161518"/>
<path opacity="0.149" d="M35.05 151.276H45.7122V161.965H35.05V151.276Z" fill="#161518"/>
<path opacity="0.616" d="M73.104 151.777H82.7646V161.463H73.104V151.777Z" fill="#161518"/>
<path opacity="0.825" d="M92.2349 152.132H101.188V161.109H92.2349V152.132Z" fill="#161518"/>
<path opacity="0.345" d="M130.407 152.752H138.124V160.488H130.407V152.752Z" fill="#161518"/>
<path opacity="0.888" d="M168.519 153.313H175.117V159.927H168.519V153.313Z" fill="#161518"/>
<path opacity="0.38" d="M225.763 154.229H230.535V159.012H225.763V154.229Z" fill="#161518"/>
<path opacity="0.579" d="M-3.00448 131.949H8.65918V143.643H-3.00448V131.949Z" fill="#161518"/>
<path opacity="0.928" d="M15.8605 132.037H27.3474V143.554H15.8605V132.037Z" fill="#161518"/>
<path opacity="0.884" d="M34.9026 132.304H45.8591V143.288H34.9026V132.304Z" fill="#161518"/>
<path opacity="0.265" d="M53.7968 132.422H64.5181V143.17H53.7968V132.422Z" fill="#161518"/>
<path opacity="0.503" d="M91.9989 133.071H101.424V142.52H91.9989V133.071Z" fill="#161518"/>
<path opacity="0.557" d="M130.141 133.662H138.388V141.93H130.141V133.662Z" fill="#161518"/>
<path opacity="0.496" d="M168.226 134.193H175.412V141.398H168.226V134.193Z" fill="#161518"/>
<path opacity="0.88" d="M206.339 134.754H212.406V140.837H206.339V134.754Z" fill="#161518"/>
<path opacity="0.531" d="M244.599 135.463H249.252V140.128H244.599V135.463Z" fill="#161518"/>
<path opacity="0.543" d="M-3.03382 113.095H8.68896V124.848H-3.03382V113.095Z" fill="#161518"/>
<path opacity="0.937" d="M15.8605 113.213H27.3474V124.73H15.8605V113.213Z" fill="#161518"/>
<path opacity="0.759" d="M53.7382 113.538H64.5771V124.405H53.7382V113.538Z" fill="#161518"/>
<path opacity="0.572" d="M72.7802 113.804H83.0889V124.139H72.7802V113.804Z" fill="#161518"/>
<path opacity="0.22" d="M91.8813 114.128H101.542V123.814H91.8813V114.128Z" fill="#161518"/>
<path opacity="0.124" d="M110.864 114.335H120.113V123.607H110.864V114.335Z" fill="#161518"/>
<path opacity="0.528" d="M149.006 114.926H157.077V123.017H149.006V114.926Z" fill="#161518"/>
<path opacity="0.619" d="M187.061 115.428H194.13V122.515H187.061V115.428Z" fill="#161518"/>
<path opacity="0.814" d="M225.174 115.989H231.124V121.954H225.174V115.989Z" fill="#161518"/>
<path opacity="0.674" d="M-3.06377 94.2412H8.71753V106.052H-3.06377V94.2412Z" fill="#161518"/>
<path opacity="0.415" d="M15.8312 94.3591H27.3772V105.934H15.8312V94.3591Z" fill="#161518"/>
<path opacity="0.108" d="M34.755 94.5068H46.0066V105.786H34.755V94.5068Z" fill="#161518"/>
<path opacity="0.509" d="M53.62 94.5955H64.6948V105.698H53.62V94.5955Z" fill="#161518"/>
<path opacity="0.137" d="M91.6747 95.0972H101.748V105.196H91.6747V95.0972Z" fill="#161518"/>
<path opacity="0.47" d="M129.818 95.6875H138.713V104.605H129.818V95.6875Z" fill="#161518"/>
<path opacity="0.629" d="M167.931 96.2485H175.707V104.044H167.931V96.2485Z" fill="#161518"/>
<path opacity="0.556" d="M205.955 96.7209H212.789V103.572H205.955V96.7209Z" fill="#161518"/>
<path opacity="0.847" d="M244.187 97.4004H249.665V102.893H244.187V97.4004Z" fill="#161518"/>
<path opacity="0.505" d="M-3.06377 75.4165H8.71753V87.2278H-3.06377V75.4165Z" fill="#161518"/>
<path opacity="0.916" d="M15.8312 75.5344H27.3772V87.1098H15.8312V75.5344Z" fill="#161518"/>
<path opacity="0.696" d="M34.7258 75.6523H46.0359V86.9912H34.7258V75.6523Z" fill="#161518"/>
<path opacity="0.911" d="M53.5909 75.741H64.7249V86.9026H53.5909V75.741Z" fill="#161518"/>
<path opacity="0.904" d="M72.5736 75.9475H83.2949V86.6961H72.5736V75.9475Z" fill="#161518"/>
<path opacity="0.23" d="M91.5863 76.1841H101.836V86.4603H91.5863V76.1841Z" fill="#161518"/>
<path opacity="0.248" d="M110.57 76.3906H120.407V86.2531H110.57V76.3906Z" fill="#161518"/>
<path opacity="0.405" d="M148.712 76.981H157.372V85.6628H148.712V76.981Z" fill="#161518"/>
<path opacity="0.151" d="M186.796 77.5127H194.395V85.1312H186.796V77.5127Z" fill="#161518"/>
<path opacity="0.736" d="M224.82 77.9851H231.477V84.6583H224.82V77.9851Z" fill="#161518"/>
<path opacity="0.313" d="M263.434 79.0483H267.971V83.5955H263.434V79.0483Z" fill="#161518"/>
<path opacity="0.348" d="M-3.03382 56.6213H8.68896V68.3739H-3.03382V56.6213Z" fill="#161518"/>
<path opacity="0.629" d="M15.8312 56.71H27.3772V68.2853H15.8312V56.71Z" fill="#161518"/>
<path opacity="0.451" d="M34.7258 56.8279H46.0359V68.1668H34.7258V56.8279Z" fill="#161518"/>
<path opacity="0.207" d="M72.4852 57.0344H83.3833V67.9602H72.4852V57.0344Z" fill="#161518"/>
<path opacity="0.483" d="M110.422 57.4182H120.554V67.5765H110.422V57.4182Z" fill="#161518"/>
<path opacity="0.745" d="M129.612 57.832H138.919V67.1629H129.612V57.832Z" fill="#161518"/>
<path opacity="0.35" d="M167.754 58.4224H175.883V66.5725H167.754V58.4224Z" fill="#161518"/>
<path opacity="0.931" d="M205.779 58.8948H212.966V66.1002H205.779V58.8948Z" fill="#161518"/>
<path opacity="0.855" d="M243.98 59.5449H249.871V65.4506H243.98V59.5449Z" fill="#161518"/>
<path opacity="0.517" d="M-3.00448 37.8262H8.65918V49.5195H-3.00448V37.8262Z" fill="#161518"/>
<path opacity="0.641" d="M15.8312 37.885H27.3772V49.4604H15.8312V37.885Z" fill="#161518"/>
<path opacity="0.287" d="M34.7258 38.0034H46.0359V49.3423H34.7258V38.0034Z" fill="#161518"/>
<path opacity="0.743" d="M53.5617 38.0627H64.7542V49.2837H53.5617V38.0627Z" fill="#161518"/>
<path opacity="0.317" d="M72.4565 38.1807H83.4131V49.1651H72.4565V38.1807Z" fill="#161518"/>
<path opacity="0.354" d="M91.4095 38.3572H102.013V48.9878H91.4095V38.3572Z" fill="#161518"/>
<path opacity="0.359" d="M129.494 38.8896H139.037V48.457H129.494V38.8896Z" fill="#161518"/>
<path opacity="0.841" d="M148.477 39.0962H157.607V48.2504H148.477V39.0962Z" fill="#161518"/>
<path opacity="0.773" d="M186.619 39.6865H194.572V47.6589H186.619V39.6865Z" fill="#161518"/>
<path opacity="0.13" d="M224.733 40.2473H231.566V47.0977H224.733V40.2473Z" fill="#161518"/>
<path opacity="0.195" d="M263.405 41.3699H268V45.9763H263.405V41.3699Z" fill="#161518"/>
<path opacity="0.466" d="M-3.00448 19.0017H8.65918V30.695H-3.00448V19.0017Z" fill="#161518"/>
<path opacity="0.223" d="M15.8605 19.0903H27.3474V30.6064H15.8605V19.0903Z" fill="#161518"/>
<path opacity="0.619" d="M53.5316 19.2083H64.7832V30.4885H53.5316V19.2083Z" fill="#161518"/>
<path opacity="0.503" d="M91.3803 19.5034H102.042V30.1927H91.3803V19.5034Z" fill="#161518"/>
<path opacity="0.213" d="M110.304 19.6514H120.672V30.0455H110.304V19.6514Z" fill="#161518"/>
<path opacity="0.977" d="M148.477 20.2715H157.607V29.4251H148.477V20.2715Z" fill="#161518"/>
<path opacity="0.43" d="M186.619 20.8618H194.572V28.8342H186.619V20.8618Z" fill="#161518"/>
<path opacity="0.883" d="M224.791 21.4822H231.507V28.2146H224.791V21.4822Z" fill="#161518"/>
<path opacity="0.473" d="M-2.94592 0.23584H8.6001V11.8112H-2.94592V0.23584Z" fill="#161518"/>
<path opacity="0.964" d="M15.8898 0.295166H27.3181V11.7526H15.8898V0.295166Z" fill="#161518"/>
<path opacity="0.862" d="M34.755 0.383789H46.0066V11.664H34.755V0.383789Z" fill="#161518"/>
<path opacity="0.613" d="M53.5617 0.413086H64.7542V11.634H53.5617V0.413086Z" fill="#161518"/>
<path opacity="0.994" d="M72.4267 0.501709H83.4424V11.546H72.4267V0.501709Z" fill="#161518"/>
<path opacity="0.183" d="M110.334 0.856201H120.642V11.1917H110.334V0.856201Z" fill="#161518"/>
<path opacity="0.293" d="M129.494 1.23999H139.037V10.8073H129.494V1.23999Z" fill="#161518"/>
<path opacity="0.556" d="M167.725 1.91895H175.913V10.1284H167.725V1.91895Z" fill="#161518"/>
<path opacity="0.903" d="M205.955 2.59839H212.789V9.44878H205.955V2.59839Z" fill="#161518"/>
<path opacity="0.848" d="M244.305 3.39526H249.548V8.6519H244.305V3.39526Z" fill="#161518"/>
</g>
<g style="mix-blend-mode:color-burn" opacity="0.3" clip-path="url(#clip2_635_18668)">
<path opacity="0.616" d="M3.10396 743.777H12.7646V753.463H3.10396V743.777Z" fill="#161518"/>
<path opacity="0.825" d="M22.2349 744.132H31.1885V753.109H22.2349V744.132Z" fill="#161518"/>
<path opacity="0.503" d="M21.9989 725.071H31.4243V734.52H21.9989V725.071Z" fill="#161518"/>
<path opacity="0.557" d="M60.1413 725.662H68.3884V733.93H60.1413V725.662Z" fill="#161518"/>
<path opacity="0.496" d="M98.2256 726.193H105.412V733.398H98.2256V726.193Z" fill="#161518"/>
<path opacity="0.88" d="M136.339 726.754H142.406V732.837H136.339V726.754Z" fill="#161518"/>
<path opacity="0.531" d="M174.599 727.463H179.252V732.128H174.599V727.463Z" fill="#161518"/>
<path opacity="0.572" d="M2.78023 705.804H13.0889V716.139H2.78023V705.804Z" fill="#161518"/>
<path opacity="0.22" d="M21.8813 706.128H31.542V715.814H21.8813V706.128Z" fill="#161518"/>
<path opacity="0.124" d="M40.8639 706.335H50.1125V715.607H40.8639V706.335Z" fill="#161518"/>
<path opacity="0.528" d="M79.0063 706.926H87.0767V715.017H79.0063V706.926Z" fill="#161518"/>
<path opacity="0.619" d="M117.061 707.428H124.13V714.515H117.061V707.428Z" fill="#161518"/>
<path opacity="0.814" d="M155.174 707.989H161.124V713.954H155.174V707.989Z" fill="#161518"/>
<path opacity="0.137" d="M21.6747 687.097H31.748V697.196H21.6747V687.097Z" fill="#161518"/>
<path opacity="0.47" d="M59.8175 687.688H68.7126V696.605H59.8175V687.688Z" fill="#161518"/>
<path opacity="0.629" d="M97.9306 688.249H105.707V696.044H97.9306V688.249Z" fill="#161518"/>
<path opacity="0.556" d="M135.955 688.721H142.789V695.572H135.955V688.721Z" fill="#161518"/>
<path opacity="0.847" d="M174.187 689.4H179.665V694.893H174.187V689.4Z" fill="#161518"/>
<path opacity="0.904" d="M2.57363 667.948H13.2949V678.696H2.57363V667.948Z" fill="#161518"/>
<path opacity="0.23" d="M21.5863 668.184H31.8364V678.46H21.5863V668.184Z" fill="#161518"/>
<path opacity="0.248" d="M40.5695 668.391H50.407V678.253H40.5695V668.391Z" fill="#161518"/>
<path opacity="0.405" d="M78.712 668.981H87.3718V677.663H78.712V668.981Z" fill="#161518"/>
<path opacity="0.151" d="M116.796 669.513H124.395V677.131H116.796V669.513Z" fill="#161518"/>
<path opacity="0.736" d="M154.82 669.985H161.477V676.658H154.82V669.985Z" fill="#161518"/>
<path opacity="0.313" d="M193.434 671.048H197.971V675.596H193.434V671.048Z" fill="#161518"/>
<path opacity="0.207" d="M2.48524 649.035H13.3833V659.96H2.48524V649.035Z" fill="#161518"/>
<path opacity="0.483" d="M40.4221 649.418H50.554V659.577H40.4221V649.418Z" fill="#161518"/>
<path opacity="0.745" d="M59.6115 649.832H68.9187V659.163H59.6115V649.832Z" fill="#161518"/>
<path opacity="0.35" d="M97.7539 650.422H105.883V658.573H97.7539V650.422Z" fill="#161518"/>
<path opacity="0.931" d="M135.779 650.895H142.966V658.1H135.779V650.895Z" fill="#161518"/>
<path opacity="0.855" d="M173.98 651.545H179.871V657.451H173.98V651.545Z" fill="#161518"/>
<path opacity="0.317" d="M2.45649 630.181H13.4131V641.165H2.45649V630.181Z" fill="#161518"/>
<path opacity="0.354" d="M21.4095 630.357H32.0132V640.988H21.4095V630.357Z" fill="#161518"/>
<path opacity="0.359" d="M59.4938 630.89H69.0369V640.457H59.4938V630.89Z" fill="#161518"/>
<path opacity="0.841" d="M78.4765 631.096H87.6069V640.25H78.4765V631.096Z" fill="#161518"/>
<path opacity="0.773" d="M116.619 631.687H124.572V639.659H116.619V631.687Z" fill="#161518"/>
<path opacity="0.13" d="M154.733 632.248H161.566V639.098H154.733V632.248Z" fill="#161518"/>
<path opacity="0.195" d="M193.405 633.37H198V637.977H193.405V633.37Z" fill="#161518"/>
<path opacity="0.503" d="M21.3803 611.503H32.0425V622.193H21.3803V611.503Z" fill="#161518"/>
<path opacity="0.213" d="M40.3044 611.651H50.6721V622.045H40.3044V611.651Z" fill="#161518"/>
<path opacity="0.977" d="M78.4765 612.271H87.6069V621.425H78.4765V612.271Z" fill="#161518"/>
<path opacity="0.43" d="M116.619 612.862H124.572V620.834H116.619V612.862Z" fill="#161518"/>
<path opacity="0.883" d="M154.791 613.482H161.507V620.214H154.791V613.482Z" fill="#161518"/>
<path opacity="0.994" d="M2.42668 592.502H13.4424V603.546H2.42668V592.502Z" fill="#161518"/>
<path opacity="0.183" d="M40.3337 592.856H50.6423V603.191H40.3337V592.856Z" fill="#161518"/>
<path opacity="0.293" d="M59.4938 593.24H69.0369V602.807H59.4938V593.24Z" fill="#161518"/>
<path opacity="0.556" d="M97.7246 593.919H105.913V602.128H97.7246V593.919Z" fill="#161518"/>
<path opacity="0.903" d="M135.955 594.598H142.789V601.449H135.955V594.598Z" fill="#161518"/>
<path opacity="0.848" d="M174.305 595.395H179.548V600.652H174.305V595.395Z" fill="#161518"/>
</g>
<defs>
<clipPath id="clip0_635_18668">
<rect width="517.426" height="365.789" fill="white" transform="matrix(-1 0 0 1 458 222)"/>
</clipPath>
<clipPath id="clip1_635_18668">
<rect width="309" height="219" fill="white" transform="matrix(-1 0 0 1 268 0)"/>
</clipPath>
<clipPath id="clip2_635_18668">
<rect width="309" height="219" fill="white" transform="matrix(-1 0 0 1 198 592)"/>
</clipPath>
</defs>
</svg>
