<svg width="100" height="100" viewBox="0 0 100 100" fill="none" xmlns="http://www.w3.org/2000/svg">
<path d="M34.9656 77.1476C39.7205 77.1476 43.5752 73.2921 43.5752 68.5361C43.5752 63.7801 39.7205 59.9246 34.9656 59.9246C30.2107 59.9246 26.356 63.7801 26.356 68.5361C26.356 73.2921 30.2107 77.1476 34.9656 77.1476Z" fill="#AFADFF"/>
<path d="M65.6242 77.1476C70.3791 77.1476 74.2337 73.2921 74.2337 68.5361C74.2337 63.7801 70.3791 59.9246 65.6242 59.9246C60.8692 59.9246 57.0146 63.7801 57.0146 68.5361C57.0146 73.2921 60.8692 77.1476 65.6242 77.1476Z" fill="#AFADFF"/>
<path d="M49.7364 80.5502C48.6412 80.5384 47.5597 80.3048 46.5572 79.8637C45.5546 79.4226 44.6517 78.7831 43.9029 77.9836C43.7139 77.7319 43.626 77.4185 43.6564 77.1052C43.6868 76.7919 43.8333 76.5013 44.0671 76.2906C44.3009 76.08 44.6051 75.9644 44.9198 75.9667C45.2345 75.9691 45.5369 76.0891 45.7676 76.3033C46.1372 76.7234 49.5054 80.0839 54.1042 76.1899C54.3608 75.9883 54.6857 75.8943 55.0103 75.9274C55.3349 75.9606 55.634 76.1185 55.8446 76.3678C56.0552 76.617 56.1608 76.9383 56.1394 77.264C56.1179 77.5897 55.971 77.8943 55.7295 78.1138C53.6002 79.9117 51.5465 80.5502 49.7364 80.5502Z" fill="#AFADFF"/>
<path d="M98.9916 56.8916C98.1516 54.7913 92.6919 52.5145 92.6919 52.5145C89.815 12.1117 100.94 16.262 67.4931 19.5512C67.0215 19.5949 66.5498 19.4674 66.1643 19.1921C65.7788 18.9168 65.5051 18.512 65.3932 18.0516L62.1132 4.65119C61.9938 4.15744 61.7674 3.69598 61.45 3.29946C61.1326 2.90295 60.7319 2.58107 60.2763 2.35663C59.8207 2.13219 59.3214 2.01067 58.8136 2.00067C58.3058 1.99067 57.8021 2.09244 57.338 2.29877C40.1063 8.52847 4.13084 30.9814 5.81076 52.4599C5.81076 52.4599 2.20734 54.7493 0.682812 56.7908C-0.841713 58.8324 0.31323 73.367 2.8919 77.2778C5.47058 81.1887 12.2742 81.6298 12.2742 81.6298C26.31 104.389 75.8381 102.739 89.2607 81.8525C99.651 78.7397 100.373 64.7596 98.9916 56.8916ZM79.4289 84.0368C72.7093 90.2245 60.5299 92.1191 49.959 91.8838C47.5777 91.8334 45.2762 91.6696 43.1427 91.4259C31.0767 90.0439 21.7658 86.091 18.1918 80.8443C12.312 72.2369 13.5132 58.2401 18.2967 50.5653C19.4833 48.7105 21.1963 47.2519 23.2163 46.3764C25.2364 45.5008 27.4717 45.2481 29.6362 45.6504C42.4792 48.0113 53.722 47.4442 72.4741 46.2428C74.7047 46.1043 76.925 46.6436 78.8437 47.7898C80.7624 48.936 82.2898 50.6357 83.2256 52.6657C87.9923 63.1255 86.2158 77.7861 79.4289 84.0368Z" fill="url(#paint0_linear_665_135146)"/>
<defs>
<linearGradient id="paint0_linear_665_135146" x1="13.0974" y1="96.3072" x2="71.1601" y2="38.2577" gradientUnits="userSpaceOnUse">
<stop stop-color="#5E5BF5"/>
<stop offset="1" stop-color="#A19FFD"/>
</linearGradient>
</defs>
</svg>
