<svg width="588" height="487" viewBox="0 0 588 487" fill="none" xmlns="http://www.w3.org/2000/svg">
<g clip-path="url(#clip0_530_69)">
<path d="M0 0H588V487H0V0Z" fill="url(#paint0_linear_530_69)"/>
<circle cx="628.223" cy="503.222" r="283" transform="rotate(-135 628.223 503.222)" fill="#8683FE" fill-opacity="0.69"/>
<circle cx="165" cy="150" r="220" fill="#8683FE" fill-opacity="0.35"/>
<path d="M422 401.348L419.629 401.946C418.442 402.245 417.369 402.863 416.534 403.728C415.699 404.592 415.137 405.668 414.914 406.828L414.493 409L414.088 406.824C413.864 405.666 413.302 404.593 412.467 403.73C411.633 402.868 410.56 402.252 409.375 401.954L407 401.348L409.375 400.764C410.561 400.472 411.636 399.862 412.475 399.005C413.314 398.148 413.883 397.079 414.114 395.923L414.493 394L414.876 395.921C415.108 397.078 415.677 398.148 416.518 399.005C417.359 399.863 418.437 400.472 419.625 400.762L422 401.348Z" fill="#6E6BFF"/>
<path d="M59.7538 187.854L59.4973 189.226L59.2503 187.85L59.2497 187.846C58.8287 185.591 57.7731 183.502 56.2064 181.822C54.6399 180.143 52.627 178.944 50.4029 178.364C50.4026 178.364 50.4023 178.364 50.402 178.363L47.9884 177.725L50.3994 177.11C50.3994 177.11 50.3994 177.11 50.3994 177.11C52.6254 176.542 54.6439 175.355 56.2192 173.686C57.7946 172.017 58.8619 169.935 59.2965 167.684L59.2968 167.682L59.4901 166.665L59.6852 167.68L59.6853 167.68C60.1209 169.934 61.1909 172.018 62.77 173.687C64.3489 175.356 66.3714 176.542 68.6009 177.106C68.6011 177.106 68.6013 177.106 68.6015 177.107L71.0041 177.722L68.605 178.349C66.3775 178.931 64.3622 180.135 62.7947 181.818C61.2273 183.501 60.1725 185.595 59.7539 187.854C59.7538 187.854 59.7538 187.854 59.7538 187.854Z" stroke="#5553CF"/>
<rect x="518" y="335.411" width="6.23852" height="6.23852" rx="0.25" transform="rotate(-45 518 335.411)" fill="#7573FF"/>
<rect x="179" y="87.8774" width="11.1402" height="11.1402" rx="0.25" transform="rotate(-45 179 87.8774)" fill="#706DFF"/>
<path d="M508 396.963L500.095 399.076C496.14 400.133 492.562 402.317 489.779 405.372C486.996 408.426 485.124 412.226 484.38 416.325L482.976 424L481.626 416.312C480.879 412.219 479.005 408.428 476.224 405.381C473.442 402.334 469.868 400.157 465.918 399.104L458 396.963L465.918 394.898C469.87 393.868 473.453 391.714 476.25 388.687C479.046 385.66 480.941 381.884 481.714 377.801L482.976 371L484.252 377.787C485.025 381.876 486.925 385.657 489.728 388.686C492.531 391.715 496.123 393.867 500.082 394.891L508 396.963Z" stroke="#6462FF" stroke-linecap="round" stroke-linejoin="round"/>
<path d="M127 80.0847L120.676 81.7194C117.512 82.5372 114.649 84.2263 112.423 86.5893C110.197 88.9523 108.699 91.8914 108.104 95.063L106.981 101L105.901 95.0523C105.303 91.8865 103.804 88.9537 101.579 86.5966C99.3538 84.2394 96.4943 82.5552 93.3345 81.7407L87 80.0847L93.3345 78.4873C96.4958 77.6905 99.3623 76.024 101.6 73.6822C103.837 71.3404 105.353 68.4198 105.971 65.2608L106.981 60L108.002 65.2501C108.62 68.4137 110.14 71.3382 112.383 73.6814C114.625 76.0246 117.498 77.6898 120.665 78.4819L127 80.0847Z" fill="#7876FF"/>
<path d="M158 395.226L153.89 396.303C151.833 396.842 149.972 397.954 148.525 399.51C147.078 401.066 146.104 403.002 145.718 405.09L144.988 409L144.286 405.083C143.897 402.998 142.923 401.067 141.476 399.515C140.03 397.963 138.171 396.853 136.117 396.317L132 395.226L136.117 394.175C138.172 393.65 140.035 392.552 141.49 391.01C142.944 389.468 143.93 387.545 144.331 385.464L144.988 382L145.651 385.457C146.053 387.541 147.041 389.467 148.499 391.01C149.956 392.553 151.824 393.649 153.883 394.171L158 395.226Z" fill="#7876FF"/>
<path d="M467 81.1455L461.625 82.5409C458.935 83.239 456.502 84.681 454.61 86.6982C452.717 88.7154 451.444 91.2244 450.939 93.9318L449.984 99L449.066 93.9227C448.558 91.2202 447.284 88.7166 445.392 86.7044C443.501 84.6922 441.07 83.2545 438.384 82.5591L433 81.1455L438.384 79.7818C441.071 79.1016 443.508 77.6791 445.41 75.68C447.311 73.6809 448.6 71.1876 449.126 68.4909L449.984 64L450.851 68.4818C451.377 71.1824 452.669 73.6789 454.575 75.6792C456.481 77.6796 458.923 79.101 461.616 79.7773L467 81.1455Z" fill="#8482FF"/>
<path d="M536 143.348L533.787 143.946C532.679 144.245 531.677 144.863 530.898 145.728C530.119 146.592 529.595 147.668 529.387 148.828L528.993 151L528.615 148.824C528.406 147.666 527.881 146.593 527.103 145.73C526.324 144.868 525.323 144.252 524.217 143.954L522 143.348L524.217 142.764C525.324 142.472 526.327 141.862 527.11 141.006C527.893 140.149 528.424 139.08 528.64 137.925L528.993 136L529.351 137.921C529.567 139.078 530.099 140.148 530.884 141.005C531.669 141.863 532.674 142.472 533.783 142.762L536 143.348Z" fill="#8482FF"/>
</g>
<defs>
<linearGradient id="paint0_linear_530_69" x1="0" y1="0" x2="668.33" y2="168.633" gradientUnits="userSpaceOnUse">
<stop stop-color="#5B58F5"/>
<stop offset="0.0001" stop-color="#AFADFF"/>
<stop offset="1" stop-color="#5B58F5"/>
</linearGradient>
<clipPath id="clip0_530_69">
<rect width="588" height="487" fill="white"/>
</clipPath>
</defs>
</svg>
