<svg width="163" height="72" viewBox="0 0 163 72" fill="none" xmlns="http://www.w3.org/2000/svg">
<path d="M2.79774 16.668C3.80574 14.724 5.24574 13.248 7.11774 12.168C8.98974 11.124 11.2217 10.584 13.7777 10.584C15.7577 10.584 17.5577 10.98 19.1417 11.736C20.7257 12.528 21.9857 13.608 22.9577 14.976C23.9297 16.38 24.5417 17.964 24.7577 19.764H19.4297C19.0697 18.36 18.4217 17.244 17.4137 16.416C16.4057 15.588 15.1457 15.156 13.6337 15.156C12.2297 15.156 11.0057 15.516 9.99774 16.2C8.95374 16.92 8.16174 17.892 7.62174 19.116C7.04574 20.376 6.79374 21.816 6.79374 23.4C6.79374 25.884 7.36974 27.864 8.59374 29.376C9.81774 30.888 11.4737 31.644 13.6337 31.644C15.1817 31.644 16.5497 31.248 17.7737 30.384C18.9617 29.52 19.6817 28.26 19.9337 26.604V26.28H13.6697V21.996H24.9377V36H21.1937L20.6177 32.868C19.8617 33.876 18.8537 34.668 17.6297 35.28C16.3697 35.928 14.9297 36.216 13.2737 36.216C10.8977 36.216 8.77374 35.712 6.97374 34.632C5.17374 33.588 3.76974 32.076 2.76174 30.132C1.75374 28.188 1.28574 25.956 1.28574 23.4C1.28574 20.844 1.78974 18.612 2.79774 16.668ZM28.5746 21.78C29.3666 20.34 30.4466 19.26 31.8506 18.468C33.2546 17.676 34.8746 17.28 36.7466 17.28C38.6186 17.28 40.2386 17.676 41.6786 18.396C43.1186 19.116 44.2346 20.16 45.0266 21.492C45.8186 22.824 46.2506 24.372 46.2866 26.172C46.2866 26.82 46.2146 27.396 46.1426 27.9H32.7146V28.044C32.8226 29.412 33.2546 30.456 34.0106 31.212C34.7306 32.004 35.7746 32.364 37.0706 32.364C38.0786 32.364 38.9426 32.148 39.6266 31.716C40.3106 31.284 40.7786 30.6 40.9946 29.736H45.9986C45.7826 30.96 45.3146 32.076 44.5946 33.048C43.8386 34.056 42.8666 34.812 41.6426 35.388C40.4186 35.964 39.0146 36.216 37.4306 36.216C35.3426 36.216 33.5786 35.856 32.0666 35.064C30.5546 34.308 29.4026 33.228 28.6106 31.788C27.8186 30.348 27.4226 28.692 27.4226 26.784C27.4226 24.876 27.7826 23.22 28.5746 21.78ZM41.2106 24.588C41.0306 23.472 40.5626 22.608 39.8066 21.996C39.0506 21.384 38.1146 21.06 36.9626 21.06C35.8466 21.06 34.9106 21.384 34.1546 22.032C33.3986 22.68 32.9666 23.508 32.8226 24.588H41.2106ZM64.2886 19.296C65.6566 20.664 66.3766 22.86 66.3766 25.956V36H61.3006V26.244C61.3006 23.076 60.0406 21.456 57.5566 21.456C56.2246 21.456 55.2166 21.924 54.4966 22.788C53.7766 23.688 53.4166 24.948 53.4166 26.532V36H48.3406V17.496H52.7686L53.2366 19.8C53.8846 19.008 54.6406 18.396 55.5766 17.964C56.4766 17.532 57.5926 17.28 58.9606 17.28C61.1206 17.28 62.8846 17.964 64.2886 19.296ZM83.9389 18.432C85.2349 19.188 86.2429 20.268 86.9629 21.708C87.6829 23.148 88.0789 24.804 88.0789 26.712C88.0789 28.584 87.6829 30.24 86.9629 31.68C86.2429 33.12 85.2349 34.236 83.9389 35.028C82.6429 35.82 81.1669 36.216 79.5469 36.216C78.2509 36.216 77.0989 36 76.1629 35.496C75.1909 34.992 74.3989 34.344 73.7869 33.48L73.2829 36H68.8549V10.8H73.9309V19.836C75.3349 18.144 77.2069 17.28 79.5109 17.28C81.1669 17.28 82.6429 17.676 83.9389 18.432ZM81.6709 30.6C82.4989 29.628 82.9309 28.332 82.9309 26.748C82.9309 25.164 82.4989 23.904 81.6709 22.896C80.8069 21.924 79.7269 21.42 78.3589 21.42C76.9909 21.42 75.8749 21.924 75.0829 22.896C74.2549 23.868 73.8589 25.128 73.8589 26.712C73.8589 28.332 74.2549 29.628 75.0829 30.6C75.8749 31.608 76.9909 32.076 78.3589 32.076C79.7269 32.076 80.8069 31.608 81.6709 30.6ZM94.0659 35.064C92.5899 34.272 91.4379 33.156 90.6459 31.716C89.8539 30.276 89.4579 28.62 89.4579 26.748C89.4579 24.876 89.8539 23.22 90.6459 21.78C91.4379 20.34 92.5899 19.26 94.0659 18.468C95.5419 17.676 97.2699 17.28 99.2139 17.28C101.158 17.28 102.85 17.676 104.326 18.468C105.802 19.26 106.954 20.34 107.746 21.78C108.538 23.22 108.97 24.876 108.97 26.748C108.97 28.656 108.538 30.312 107.746 31.752C106.954 33.192 105.802 34.272 104.326 35.064C102.85 35.856 101.158 36.216 99.2139 36.216C97.2699 36.216 95.5419 35.856 94.0659 35.064ZM102.562 30.6C103.39 29.628 103.822 28.332 103.822 26.748C103.822 25.164 103.39 23.904 102.562 22.896C101.734 21.924 100.618 21.42 99.2139 21.42C97.8099 21.42 96.6939 21.924 95.8659 22.896C95.0379 23.904 94.6419 25.164 94.6419 26.748C94.6419 28.332 95.0379 29.628 95.8659 30.6C96.6939 31.608 97.8099 32.076 99.2139 32.076C100.618 32.076 101.734 31.608 102.562 30.6ZM129.26 31.716V36H126.668C124.328 36 123.176 34.992 123.248 32.976C122.564 34.056 121.736 34.848 120.764 35.388C119.756 35.964 118.568 36.216 117.2 36.216C115.112 36.216 113.456 35.748 112.196 34.812C110.936 33.876 110.324 32.508 110.324 30.78C110.324 28.836 111.044 27.324 112.484 26.244C113.924 25.164 116.048 24.624 118.82 24.624H122.492V23.724C122.492 22.896 122.168 22.248 121.556 21.744C120.908 21.24 120.08 20.988 119.036 20.988C118.1 20.988 117.308 21.204 116.732 21.6C116.12 22.032 115.76 22.572 115.652 23.256H110.756C110.9 21.384 111.764 19.908 113.276 18.864C114.788 17.82 116.768 17.28 119.288 17.28C121.88 17.28 123.896 17.856 125.336 19.008C126.776 20.16 127.496 21.852 127.496 24.012V30.528C127.496 30.996 127.568 31.32 127.784 31.464C127.964 31.644 128.252 31.716 128.684 31.716H129.26ZM122.492 28.008H118.784C117.704 28.008 116.876 28.224 116.3 28.656C115.724 29.088 115.436 29.664 115.436 30.42C115.436 31.068 115.652 31.608 116.156 31.968C116.66 32.364 117.308 32.544 118.172 32.544C119.468 32.544 120.512 32.184 121.304 31.428C122.06 30.672 122.456 29.664 122.492 28.368V28.008ZM141.772 17.496V22.104H139.756C138.316 22.104 137.236 22.536 136.588 23.4C135.904 24.264 135.58 25.452 135.58 26.928V36H130.504V17.496H135.112L135.58 20.268C136.12 19.368 136.804 18.684 137.632 18.216C138.424 17.748 139.54 17.496 140.908 17.496H141.772ZM161.225 10.8V36H156.797L156.293 33.444C154.853 35.316 152.945 36.216 150.533 36.216C148.877 36.216 147.437 35.856 146.141 35.064C144.845 34.272 143.801 33.156 143.081 31.716C142.361 30.276 142.001 28.62 142.001 26.712C142.001 24.84 142.361 23.22 143.081 21.78C143.801 20.34 144.845 19.26 146.141 18.468C147.437 17.676 148.913 17.28 150.569 17.28C152.945 17.28 154.817 18.144 156.149 19.8V10.8H161.225ZM154.997 30.636C155.789 29.664 156.221 28.368 156.221 26.784C156.221 25.2 155.789 23.904 154.997 22.896C154.169 21.924 153.089 21.42 151.721 21.42C150.353 21.42 149.237 21.924 148.409 22.896C147.581 23.904 147.185 25.164 147.185 26.748C147.185 28.332 147.581 29.628 148.409 30.6C149.237 31.608 150.353 32.076 151.721 32.076C153.089 32.076 154.169 31.608 154.997 30.636Z" fill="url(#paint0_linear_1016_15254)"/>
<path d="M5.43648 65L0.594484 51.59H2.48448L6.58848 63.38H6.21048L10.3145 51.59H12.2045L7.38048 65H5.43648ZM17.2659 65.216C16.3299 65.216 15.4959 64.994 14.7639 64.55C14.0319 64.106 13.4559 63.5 13.0359 62.732C12.6159 61.952 12.4059 61.082 12.4059 60.122C12.4059 59.15 12.6099 58.286 13.0179 57.53C13.4379 56.774 14.0019 56.18 14.7099 55.748C15.4299 55.304 16.2339 55.082 17.1219 55.082C17.8419 55.082 18.4779 55.214 19.0299 55.478C19.5939 55.73 20.0679 56.078 20.4519 56.522C20.8479 56.954 21.1479 57.452 21.3519 58.016C21.5679 58.568 21.6759 59.144 21.6759 59.744C21.6759 59.876 21.6639 60.026 21.6399 60.194C21.6279 60.35 21.6099 60.5 21.5859 60.644H13.6299V59.204H20.6139L19.8219 59.852C19.9299 59.228 19.8699 58.67 19.6419 58.178C19.4139 57.686 19.0779 57.296 18.6339 57.008C18.1899 56.72 17.6859 56.576 17.1219 56.576C16.5579 56.576 16.0419 56.72 15.5739 57.008C15.1059 57.296 14.7399 57.71 14.4759 58.25C14.2239 58.778 14.1219 59.408 14.1699 60.14C14.1219 60.848 14.2299 61.472 14.4939 62.012C14.7699 62.54 15.1539 62.954 15.6459 63.254C16.1499 63.542 16.6959 63.686 17.2839 63.686C17.9319 63.686 18.4779 63.536 18.9219 63.236C19.3659 62.936 19.7259 62.552 20.0019 62.084L21.4059 62.804C21.2139 63.248 20.9139 63.656 20.5059 64.028C20.1099 64.388 19.6359 64.676 19.0839 64.892C18.5439 65.108 17.9379 65.216 17.2659 65.216ZM23.8585 65V55.298H25.4965V57.08L25.3165 56.828C25.5445 56.276 25.8925 55.868 26.3605 55.604C26.8285 55.328 27.3985 55.19 28.0705 55.19H28.6645V56.774H27.8185C27.1345 56.774 26.5825 56.99 26.1625 57.422C25.7425 57.842 25.5325 58.442 25.5325 59.222V65H23.8585ZM33.6255 65.216C32.6535 65.216 31.8075 64.976 31.0875 64.496C30.3675 64.016 29.8575 63.368 29.5575 62.552L30.8895 61.904C31.1655 62.48 31.5435 62.936 32.0235 63.272C32.5035 63.608 33.0375 63.776 33.6255 63.776C34.1535 63.776 34.5915 63.65 34.9395 63.398C35.2875 63.146 35.4615 62.816 35.4615 62.408C35.4615 62.12 35.3775 61.892 35.2095 61.724C35.0535 61.544 34.8615 61.406 34.6335 61.31C34.4055 61.202 34.1955 61.124 34.0035 61.076L32.5455 60.662C31.6695 60.41 31.0275 60.05 30.6195 59.582C30.2235 59.114 30.0255 58.568 30.0255 57.944C30.0255 57.368 30.1695 56.87 30.4575 56.45C30.7575 56.018 31.1595 55.682 31.6635 55.442C32.1795 55.202 32.7555 55.082 33.3915 55.082C34.2435 55.082 35.0055 55.298 35.6775 55.73C36.3615 56.162 36.8475 56.768 37.1355 57.548L35.7675 58.178C35.5515 57.674 35.2275 57.278 34.7955 56.99C34.3635 56.69 33.8775 56.54 33.3375 56.54C32.8455 56.54 32.4555 56.666 32.1675 56.918C31.8795 57.158 31.7355 57.464 31.7355 57.836C31.7355 58.112 31.8075 58.34 31.9515 58.52C32.0955 58.688 32.2695 58.82 32.4735 58.916C32.6775 59 32.8755 59.072 33.0675 59.132L34.6515 59.6C35.4435 59.828 36.0555 60.182 36.4875 60.662C36.9315 61.142 37.1535 61.718 37.1535 62.39C37.1535 62.93 37.0035 63.416 36.7035 63.848C36.4035 64.28 35.9895 64.616 35.4615 64.856C34.9335 65.096 34.3215 65.216 33.6255 65.216ZM39.3448 65V55.298H41.0188V65H39.3448ZM39.3448 53.75V51.59H41.0188V53.75H39.3448ZM48.2243 65.216C47.2883 65.216 46.4423 65 45.6863 64.568C44.9303 64.124 44.3303 63.518 43.8863 62.75C43.4423 61.982 43.2203 61.112 43.2203 60.14C43.2203 59.168 43.4363 58.304 43.8683 57.548C44.3123 56.792 44.9123 56.192 45.6683 55.748C46.4243 55.304 47.2763 55.082 48.2243 55.082C49.1603 55.082 50.0063 55.304 50.7623 55.748C51.5183 56.18 52.1123 56.774 52.5443 57.53C52.9883 58.286 53.2103 59.156 53.2103 60.14C53.2103 61.124 52.9823 62 52.5263 62.768C52.0703 63.524 51.4643 64.124 50.7083 64.568C49.9643 65 49.1363 65.216 48.2243 65.216ZM48.2243 63.596C48.8243 63.596 49.3643 63.446 49.8443 63.146C50.3363 62.846 50.7203 62.432 50.9963 61.904C51.2843 61.376 51.4283 60.788 51.4283 60.14C51.4283 59.48 51.2843 58.898 50.9963 58.394C50.7203 57.878 50.3363 57.47 49.8443 57.17C49.3643 56.858 48.8243 56.702 48.2243 56.702C47.6123 56.702 47.0603 56.858 46.5683 57.17C46.0883 57.47 45.7043 57.878 45.4163 58.394C45.1283 58.898 44.9843 59.48 44.9843 60.14C44.9843 60.788 45.1283 61.376 45.4163 61.904C45.7043 62.432 46.0883 62.846 46.5683 63.146C47.0603 63.446 47.6123 63.596 48.2243 63.596ZM55.3937 65V55.298H57.0317V57.188L56.7617 57.026C57.0017 56.414 57.3857 55.94 57.9137 55.604C58.4537 55.256 59.0837 55.082 59.8037 55.082C60.4997 55.082 61.1177 55.238 61.6577 55.55C62.2097 55.862 62.6417 56.294 62.9537 56.846C63.2777 57.398 63.4397 58.022 63.4397 58.718V65H61.7477V59.258C61.7477 58.718 61.6517 58.262 61.4597 57.89C61.2677 57.518 60.9917 57.23 60.6317 57.026C60.2837 56.81 59.8817 56.702 59.4257 56.702C58.9697 56.702 58.5617 56.81 58.2017 57.026C57.8537 57.23 57.5777 57.524 57.3737 57.908C57.1697 58.28 57.0677 58.73 57.0677 59.258V65H55.3937ZM70.8544 65V53.12H68.3164V51.59H72.6364V65H70.8544ZM76.5034 65V62.84H78.2494V65H76.5034ZM86.7703 65.216C85.7023 65.216 84.7663 64.928 83.9623 64.352C83.1703 63.764 82.5523 62.954 82.1083 61.922C81.6643 60.878 81.4423 59.666 81.4423 58.286C81.4423 56.906 81.6643 55.7 82.1083 54.668C82.5523 53.624 83.1703 52.814 83.9623 52.238C84.7543 51.662 85.6843 51.374 86.7523 51.374C87.8203 51.374 88.7503 51.662 89.5423 52.238C90.3343 52.814 90.9523 53.624 91.3963 54.668C91.8523 55.7 92.0803 56.906 92.0803 58.286C92.0803 59.666 91.8583 60.878 91.4143 61.922C90.9703 62.966 90.3463 63.776 89.5423 64.352C88.7503 64.928 87.8263 65.216 86.7703 65.216ZM86.7703 63.578C87.4903 63.578 88.1143 63.362 88.6423 62.93C89.1703 62.486 89.5783 61.868 89.8663 61.076C90.1663 60.284 90.3163 59.354 90.3163 58.286C90.3163 57.218 90.1663 56.288 89.8663 55.496C89.5783 54.704 89.1643 54.092 88.6243 53.66C88.0963 53.228 87.4723 53.012 86.7523 53.012C86.0323 53.012 85.4083 53.228 84.8803 53.66C84.3523 54.092 83.9383 54.704 83.6383 55.496C83.3503 56.288 83.2063 57.218 83.2063 58.286C83.2063 59.342 83.3503 60.266 83.6383 61.058C83.9383 61.85 84.3523 62.468 84.8803 62.912C85.4203 63.356 86.0503 63.578 86.7703 63.578ZM95.2417 65V62.84H96.9877V65H95.2417ZM105.509 65.216C104.441 65.216 103.505 64.928 102.701 64.352C101.909 63.764 101.291 62.954 100.847 61.922C100.403 60.878 100.181 59.666 100.181 58.286C100.181 56.906 100.403 55.7 100.847 54.668C101.291 53.624 101.909 52.814 102.701 52.238C103.493 51.662 104.423 51.374 105.491 51.374C106.559 51.374 107.489 51.662 108.281 52.238C109.073 52.814 109.691 53.624 110.135 54.668C110.591 55.7 110.819 56.906 110.819 58.286C110.819 59.666 110.597 60.878 110.153 61.922C109.709 62.966 109.085 63.776 108.281 64.352C107.489 64.928 106.565 65.216 105.509 65.216ZM105.509 63.578C106.229 63.578 106.853 63.362 107.381 62.93C107.909 62.486 108.317 61.868 108.605 61.076C108.905 60.284 109.055 59.354 109.055 58.286C109.055 57.218 108.905 56.288 108.605 55.496C108.317 54.704 107.903 54.092 107.363 53.66C106.835 53.228 106.211 53.012 105.491 53.012C104.771 53.012 104.147 53.228 103.619 53.66C103.091 54.092 102.677 54.704 102.377 55.496C102.089 56.288 101.945 57.218 101.945 58.286C101.945 59.342 102.089 60.266 102.377 61.058C102.677 61.85 103.091 62.468 103.619 62.912C104.159 63.356 104.789 63.578 105.509 63.578Z" fill="#6F767E"/>
<defs>
<linearGradient id="paint0_linear_1016_15254" x1="0" y1="0" x2="123.215" y2="95.39" gradientUnits="userSpaceOnUse">
<stop stop-color="#5B58F5"/>
<stop offset="0.0001" stop-color="#AFADFF"/>
<stop offset="1" stop-color="#5B58F5"/>
</linearGradient>
</defs>
</svg>
