<svg width="25" height="23" viewBox="0 0 25 23" fill="none" xmlns="http://www.w3.org/2000/svg">
<path d="M23.151 9.50553C22.8599 4.60522 18.7813 0.708496 13.8093 0.708496H10.5955C5.62349 0.708496 1.54489 4.60522 1.2538 9.50553C0.635986 9.77178 0.202393 10.3872 0.202393 11.1016V14.7265C0.202393 15.6846 0.981924 16.4641 1.94005 16.4641H3.3463V9.36397H2.67411C3.0313 5.3074 6.44755 2.11475 10.5955 2.11475H13.8093C17.9572 2.11475 21.3735 5.3074 21.7307 9.36397H21.0585V16.4641H22.4647C23.4229 16.4641 24.2024 15.6846 24.2024 14.7265V11.1016C24.2024 10.3872 23.7688 9.77178 23.151 9.50553Z" fill="url(#paint0_linear_635_19669)"/>
<path d="M17.7282 7.16357H6.67786C5.61661 7.16357 4.75317 8.02701 4.75317 9.08826V17.8483C4.75317 18.9095 5.61661 19.7729 6.67786 19.7729H9.0877L11.4315 22.547C11.565 22.705 11.7615 22.7964 11.9686 22.7964C12.1758 22.7964 12.3722 22.705 12.5058 22.547L14.8496 19.7729H17.7282C18.7894 19.7729 19.6529 18.9095 19.6529 17.8483V9.08826C19.6529 8.02701 18.7894 7.16357 17.7282 7.16357ZM14.7727 10.6848C15.1608 10.6848 15.4758 10.9994 15.4758 11.3879C15.4758 11.7761 15.1608 12.0911 14.7727 12.0911C14.3846 12.0911 14.0696 11.7761 14.0696 11.3879C14.0696 10.9994 14.3846 10.6848 14.7727 10.6848ZM9.33567 10.6848C9.7238 10.6848 10.0388 10.9994 10.0388 11.3879C10.0388 11.7761 9.7238 12.0911 9.33567 12.0911C8.94755 12.0911 8.63255 11.7761 8.63255 11.3879C8.63255 10.9994 8.94755 10.6848 9.33567 10.6848ZM15.7079 14.9504C14.6269 15.909 13.4147 16.3886 12.203 16.3886C10.9908 16.3886 9.77911 15.9095 8.69817 14.9504C8.40755 14.6931 8.38083 14.2487 8.63864 13.9581C8.89646 13.6675 9.34083 13.6408 9.63145 13.8986C10.4485 14.6233 11.3255 14.9856 12.203 14.9856C13.0805 14.9856 13.958 14.6233 14.775 13.8986C15.0652 13.6408 15.5096 13.6675 15.7674 13.9581C16.0252 14.2487 15.9985 14.6931 15.7079 14.9504Z" fill="url(#paint1_linear_635_19669)"/>
<defs>
<linearGradient id="paint0_linear_635_19669" x1="0.202393" y1="0.708496" x2="25.3262" y2="2.77043" gradientUnits="userSpaceOnUse">
<stop stop-color="#5B58F5"/>
<stop offset="1" stop-color="#0F77FF"/>
</linearGradient>
<linearGradient id="paint1_linear_635_19669" x1="4.75317" y1="7.16357" x2="20.4143" y2="7.9678" gradientUnits="userSpaceOnUse">
<stop stop-color="#5B58F5"/>
<stop offset="1" stop-color="#0F77FF"/>
</linearGradient>
</defs>
</svg>
