<svg width="24" height="25" viewBox="0 0 24 25" fill="none" xmlns="http://www.w3.org/2000/svg">
<g clip-path="url(#clip0_635_19638)">
<path d="M15.7024 7.16748H19.5461C19.9345 7.16748 20.2493 6.85267 20.2493 6.46436V4.58936C20.2493 4.20104 19.9345 3.88623 19.5461 3.88623C19.1578 3.88623 18.843 4.20104 18.843 4.58936V5.76123H15.7024C15.3141 5.76123 14.9993 6.07604 14.9993 6.46436C14.9993 6.85267 15.3141 7.16748 15.7024 7.16748Z" fill="url(#paint0_linear_635_19638)"/>
<path d="M17.343 9.27687C17.343 9.66518 17.6578 9.97999 18.0461 9.97999H20.9524C21.1737 9.97999 21.3821 9.87579 21.5149 9.69874L22.9211 7.82374C23.1542 7.5131 23.0912 7.07239 22.7805 6.83937C22.4699 6.60635 22.0292 6.66935 21.7961 6.97999L20.6008 8.57374H18.0461C17.6578 8.57374 17.343 8.88856 17.343 9.27687Z" fill="url(#paint1_linear_635_19638)"/>
<path d="M19.5461 17.0112H15.7024C15.3141 17.0112 14.9993 17.326 14.9993 17.7144C14.9993 18.1027 15.3141 18.4175 15.7024 18.4175H18.843V19.5894C18.843 19.9777 19.1578 20.2925 19.5461 20.2925C19.9345 20.2925 20.2493 19.9777 20.2493 19.5894V17.7144C20.2493 17.326 19.9345 17.0112 19.5461 17.0112Z" fill="url(#paint2_linear_635_19638)"/>
<path d="M21.5149 14.48C21.3821 14.3029 21.1737 14.1987 20.9524 14.1987H18.0461C17.6578 14.1987 17.343 14.5135 17.343 14.9019C17.343 15.2902 17.6578 15.605 18.0461 15.605H20.6008L21.7961 17.1987C22.0292 17.5094 22.4699 17.5724 22.7805 17.3394C23.0912 17.1063 23.1542 16.6656 22.9211 16.355L21.5149 14.48Z" fill="url(#paint3_linear_635_19638)"/>
<path d="M23.2961 11.3862H18.0461C17.6578 11.3862 17.343 11.701 17.343 12.0894C17.343 12.4777 17.6578 12.7925 18.0461 12.7925H23.2961C23.6845 12.7925 23.9993 12.4777 23.9993 12.0894C23.9993 11.701 23.6845 11.3862 23.2961 11.3862Z" fill="url(#paint4_linear_635_19638)"/>
<path d="M7.90286 17.4792C7.75947 17.5114 7.61247 17.5279 7.46467 17.5279C6.75025 17.5279 6.08463 17.1437 5.72753 16.5252L4.52964 14.4504C4.08096 13.6732 4.21328 12.7174 4.79097 12.0894C4.21338 11.4613 4.081 10.5055 4.5296 9.72836L5.72758 7.65348C6.08463 7.03501 6.75025 6.65078 7.46467 6.65078C7.61247 6.65078 7.75947 6.66728 7.90286 6.69943C8.15796 5.88507 8.91953 5.29248 9.81696 5.29248H11.718V3.60498C11.718 1.66646 10.1409 0.0893555 8.20239 0.0893555C6.46938 0.0893555 5.02525 1.34968 4.73852 3.00193C2.8503 3.31379 1.40552 4.95789 1.40552 6.93311C1.40552 7.49603 1.5228 8.04493 1.74855 8.55123C0.655236 9.38612 -0.000732422 10.6871 -0.000732422 12.0894C-0.000732422 13.4916 0.655236 14.7926 1.74855 15.6275C1.5228 16.1338 1.40552 16.6827 1.40552 17.2456C1.40552 19.2208 2.8503 20.8649 4.73852 21.1768C5.02525 22.829 6.46938 24.0894 8.20239 24.0894C10.1409 24.0894 11.718 22.5122 11.718 20.5737V18.8862H9.81696C8.91953 18.8862 8.15796 18.2936 7.90286 17.4792Z" fill="url(#paint5_linear_635_19638)"/>
<path d="M11.0149 12.7925C11.4032 12.7925 11.718 12.4777 11.718 12.0894C11.718 11.701 11.4032 11.3862 11.0149 11.3862C10.6266 11.3862 10.3118 11.701 10.3118 12.0894C10.3118 12.4777 10.6266 12.7925 11.0149 12.7925Z" fill="url(#paint6_linear_635_19638)"/>
<path d="M16.2824 13.7473C16.4478 13.4608 16.3497 13.0945 16.0632 12.9291L15.8067 12.781C15.2743 12.4736 15.2743 11.7052 15.8067 11.3978L16.0632 11.2497C16.3497 11.0843 16.4478 10.718 16.2824 10.4315L15.0845 8.35665C14.9191 8.07015 14.5528 7.97204 14.2663 8.13742L14.0098 8.2855C13.4774 8.59286 12.8119 8.20862 12.8119 7.59386V7.2977C12.8119 6.9669 12.5437 6.69873 12.2129 6.69873H9.81708C9.48628 6.69873 9.21811 6.9669 9.21811 7.2977V7.59386C9.21811 8.20862 8.55262 8.59286 8.02022 8.2855L7.76372 8.13742C7.47722 7.97204 7.11094 8.07015 6.94551 8.35665L5.74758 10.4315C5.5822 10.718 5.68031 11.0843 5.96681 11.2497L6.22331 11.3978C6.75572 11.7052 6.75572 12.4736 6.22331 12.781L5.96681 12.9291C5.68031 13.0945 5.5822 13.4608 5.74758 13.7473L6.94551 15.8221C7.11089 16.1086 7.47722 16.2067 7.76372 16.0413L8.02022 15.8933C8.55262 15.5859 9.21811 15.9701 9.21811 16.5849V16.8811C9.21811 17.2119 9.48628 17.48 9.81708 17.48H12.2129C12.5437 17.48 12.8119 17.2119 12.8119 16.8811V16.5849C12.8119 15.9701 13.4774 15.5859 14.0098 15.8933L14.2663 16.0413C14.5527 16.2067 14.919 16.1086 15.0845 15.8221L16.2824 13.7473ZM11.015 14.1987C9.8519 14.1987 8.90564 13.2525 8.90564 12.0894C8.90564 10.9262 9.8519 9.97998 11.015 9.97998C12.1781 9.97998 13.1244 10.9262 13.1244 12.0894C13.1244 13.2525 12.1781 14.1987 11.015 14.1987Z" fill="url(#paint7_linear_635_19638)"/>
</g>
<defs>
<linearGradient id="paint0_linear_635_19638" x1="14.9993" y1="3.88623" x2="20.4913" y2="4.35967" gradientUnits="userSpaceOnUse">
<stop stop-color="#5B58F5"/>
<stop offset="1" stop-color="#0F77FF"/>
</linearGradient>
<linearGradient id="paint1_linear_635_19638" x1="17.343" y1="6.6987" x2="23.3173" y2="7.25969" gradientUnits="userSpaceOnUse">
<stop stop-color="#5B58F5"/>
<stop offset="1" stop-color="#0F77FF"/>
</linearGradient>
<linearGradient id="paint2_linear_635_19638" x1="14.9993" y1="17.0112" x2="20.4913" y2="17.4847" gradientUnits="userSpaceOnUse">
<stop stop-color="#5B58F5"/>
<stop offset="1" stop-color="#0F77FF"/>
</linearGradient>
<linearGradient id="paint3_linear_635_19638" x1="17.343" y1="14.1987" x2="23.3173" y2="14.7597" gradientUnits="userSpaceOnUse">
<stop stop-color="#5B58F5"/>
<stop offset="1" stop-color="#0F77FF"/>
</linearGradient>
<linearGradient id="paint4_linear_635_19638" x1="17.343" y1="11.3862" x2="23.9295" y2="13.0659" gradientUnits="userSpaceOnUse">
<stop stop-color="#5B58F5"/>
<stop offset="1" stop-color="#0F77FF"/>
</linearGradient>
<linearGradient id="paint5_linear_635_19638" x1="-0.000732422" y1="0.0893555" x2="12.3409" y2="0.414034" gradientUnits="userSpaceOnUse">
<stop stop-color="#5B58F5"/>
<stop offset="1" stop-color="#0F77FF"/>
</linearGradient>
<linearGradient id="paint6_linear_635_19638" x1="10.3118" y1="11.3862" x2="11.7895" y2="11.4658" gradientUnits="userSpaceOnUse">
<stop stop-color="#5B58F5"/>
<stop offset="1" stop-color="#0F77FF"/>
</linearGradient>
<linearGradient id="paint7_linear_635_19638" x1="5.66724" y1="6.69873" x2="16.9069" y2="7.29948" gradientUnits="userSpaceOnUse">
<stop stop-color="#5B58F5"/>
<stop offset="1" stop-color="#0F77FF"/>
</linearGradient>
<clipPath id="clip0_635_19638">
<rect width="24" height="24" fill="white" transform="translate(-0.000732422 0.0893555)"/>
</clipPath>
</defs>
</svg>
