<svg width="77" height="76" viewBox="0 0 77 76" fill="none" xmlns="http://www.w3.org/2000/svg">
<rect x="0.799316" width="76" height="76" rx="12" fill="#C5E9FF"/>
<path opacity="0.4" d="M38.7993 63C52.6064 63 63.7993 51.8071 63.7993 38C63.7993 24.1929 52.6064 13 38.7993 13C24.9922 13 13.7993 24.1929 13.7993 38C13.7993 51.8071 24.9922 63 38.7993 63Z" fill="#0F77FF"/>
<path d="M30.4978 37.7745L34.6228 38.7996L32.2478 48.3995C31.6978 50.6495 32.7978 51.3996 34.6978 50.0746L47.6478 41.0996C49.2228 39.9996 48.9978 38.7245 47.1228 38.2495L42.9978 37.2246L45.3728 27.6245C45.9228 25.3745 44.8228 24.6246 42.9228 25.9496L29.9728 34.9246C28.3978 36.0246 28.6228 37.2995 30.4978 37.7745Z" fill="#0F77FF"/>
</svg>
