<svg width="24" height="24" viewBox="0 0 24 24" fill="none" xmlns="http://www.w3.org/2000/svg">
<g id="briefcase-fill" clip-path="url(#clip0_1453_127967)">
<path id="Vector" d="M9.75 1.5C9.15326 1.5 8.58097 1.73705 8.15901 2.15901C7.73705 2.58097 7.5 3.15326 7.5 3.75V4.5H2.25C1.65326 4.5 1.08097 4.73705 0.65901 5.15901C0.237053 5.58097 0 6.15326 0 6.75L0 8.826L11.421 11.871C11.8004 11.972 12.1996 11.972 12.579 11.871L24 8.826V6.75C24 6.15326 23.7629 5.58097 23.341 5.15901C22.919 4.73705 22.3467 4.5 21.75 4.5H16.5V3.75C16.5 3.15326 16.2629 2.58097 15.841 2.15901C15.419 1.73705 14.8467 1.5 14.25 1.5H9.75ZM9.75 3H14.25C14.4489 3 14.6397 3.07902 14.7803 3.21967C14.921 3.36032 15 3.55109 15 3.75V4.5H9V3.75C9 3.55109 9.07902 3.36032 9.21967 3.21967C9.36032 3.07902 9.55109 3 9.75 3Z" fill="url(#paint0_linear_1453_127967)"/>
<path id="Vector_2" d="M0 18.75C0 19.3468 0.237053 19.9191 0.65901 20.341C1.08097 20.763 1.65326 21 2.25 21H21.75C22.3467 21 22.919 20.763 23.341 20.341C23.7629 19.9191 24 19.3468 24 18.75V10.275L12.1935 13.4205C12.0667 13.4544 11.9333 13.4544 11.8065 13.4205L0 10.275V18.75Z" fill="url(#paint1_linear_1453_127967)"/>
</g>
<defs>
<linearGradient id="paint0_linear_1453_127967" x1="0" y1="1.5" x2="24.9114" y2="4.58347" gradientUnits="userSpaceOnUse">
<stop stop-color="#5B58F5"/>
<stop offset="1" stop-color="#0F77FF"/>
</linearGradient>
<linearGradient id="paint1_linear_1453_127967" x1="0" y1="10.275" x2="24.9307" y2="13.2808" gradientUnits="userSpaceOnUse">
<stop stop-color="#5B58F5"/>
<stop offset="1" stop-color="#0F77FF"/>
</linearGradient>
<clipPath id="clip0_1453_127967">
<rect width="24" height="24" fill="white"/>
</clipPath>
</defs>
</svg>
