<svg width="24" height="25" viewBox="0 0 24 25" fill="none" xmlns="http://www.w3.org/2000/svg">
<g clip-path="url(#clip0_635_19506)">
<path d="M12.989 13.187H11.0079C10.875 13.187 10.7668 13.2952 10.7668 13.4281V15.418C10.7668 15.551 10.875 15.6591 11.0079 15.6591H12.989C13.1219 15.6591 13.23 15.551 13.23 15.418V13.4281C13.23 13.2952 13.1219 13.187 12.989 13.187Z" fill="url(#paint0_linear_635_19506)"/>
<path d="M20.2968 5.05105H16.2109V3.34138C16.2109 2.44799 15.4771 1.72119 14.5751 1.72119H9.42339C8.52142 1.72119 7.78764 2.44799 7.78764 3.34138V5.0511H3.70178C1.66024 5.05105 -0.000732422 6.71202 -0.000732422 8.75361V10.9727C0.136705 11.642 0.619893 12.1928 1.28856 12.4068L9.35716 14.3787V13.4278C9.35716 12.5171 10.0981 11.7762 11.0088 11.7762H12.9898C13.9005 11.7762 14.6414 12.5171 14.6414 13.4278V14.3787L22.71 12.4068C23.3786 12.1928 23.8618 11.642 23.9993 10.9727V8.75361C23.9993 6.71202 22.3383 5.05105 20.2968 5.05105ZM14.8003 5.0511H9.1982V3.34138C9.1982 3.22185 9.295 3.13171 9.42339 3.13171H14.5751C14.7035 3.13171 14.8003 3.22185 14.8003 3.34138V5.0511Z" fill="url(#paint1_linear_635_19506)"/>
<path d="M23.1078 13.7606C23.0943 13.7648 23.0807 13.7685 23.067 13.7719L14.5852 15.8448C14.3965 16.5492 13.7529 17.0696 12.9898 17.0696H11.0088C10.2456 17.0696 9.60199 16.5492 9.41336 15.8448L0.931564 13.7719C0.917877 13.7685 0.904283 13.7647 0.890783 13.7606C0.566924 13.6605 0.268049 13.5148 -0.000732422 13.3324V19.3274C-0.000732422 20.995 1.35597 22.3518 3.02364 22.3518H20.9749C22.6425 22.3518 23.9993 20.9951 23.9993 19.3274V13.3324C23.7305 13.5148 23.4316 13.6605 23.1078 13.7606Z" fill="url(#paint2_linear_635_19506)"/>
</g>
<defs>
<linearGradient id="paint0_linear_635_19506" x1="10.7668" y1="13.187" x2="13.3553" y2="13.326" gradientUnits="userSpaceOnUse">
<stop stop-color="#5B58F5"/>
<stop offset="1" stop-color="#0F77FF"/>
</linearGradient>
<linearGradient id="paint1_linear_635_19506" x1="-0.000732422" y1="1.72119" x2="25.0311" y2="4.27842" gradientUnits="userSpaceOnUse">
<stop stop-color="#5B58F5"/>
<stop offset="1" stop-color="#0F77FF"/>
</linearGradient>
<linearGradient id="paint2_linear_635_19506" x1="-0.000732422" y1="13.3324" x2="24.7829" y2="16.8855" gradientUnits="userSpaceOnUse">
<stop stop-color="#5B58F5"/>
<stop offset="1" stop-color="#0F77FF"/>
</linearGradient>
<clipPath id="clip0_635_19506">
<rect width="24" height="24" fill="white" transform="translate(-0.000732422 0.0366211)"/>
</clipPath>
</defs>
</svg>
