<svg width="24" height="25" viewBox="0 0 24 25" fill="none" xmlns="http://www.w3.org/2000/svg">
<g clip-path="url(#clip0_635_19564)">
<path d="M1.54052 12.8184C0.616611 13.0823 -0.000732422 13.9151 -0.000732422 14.8499V17.6624C-0.000732422 18.6257 0.648486 19.4404 1.53255 19.6916C1.47958 19.3509 1.45239 19.0021 1.45239 18.6468C1.45239 13.4993 1.4486 13.8116 1.46177 13.5576C1.47442 13.3073 1.50114 13.0607 1.54052 12.8184Z" fill="url(#paint0_linear_635_19564)"/>
<path d="M22.4583 12.8184C22.5168 13.1779 22.5468 13.5435 22.5468 13.9124V18.6468C22.5468 19.0021 22.5197 19.3509 22.4667 19.6916C23.3508 19.4404 24 18.6257 24 17.6624V14.8499C24 13.8838 23.3465 13.0668 22.4583 12.8184Z" fill="url(#paint1_linear_635_19564)"/>
<path d="M20.9524 12.7402H13.2002L10.833 13.9238C10.5419 14.0696 10.2157 14.1465 9.88989 14.1465C9.49802 14.1465 9.11411 14.0377 8.78083 13.8315C8.15458 13.4443 7.78052 12.7735 7.78052 12.0371V8.54211C5.02661 8.78024 2.85864 11.0977 2.85864 13.9121V18.6465C2.85864 21.6188 5.27692 24.0371 8.24927 24.0371H15.7493C18.7216 24.0371 21.1399 21.6188 21.1399 18.6465V13.9121C21.1399 13.5146 21.0963 13.1213 21.011 12.7393C20.9913 12.7402 20.9721 12.7402 20.9524 12.7402ZM9.18677 16.2559C9.18677 16.6442 8.87195 16.959 8.48364 16.959C8.09533 16.959 7.78052 16.6442 7.78052 16.2559V14.8496C7.78052 14.4613 8.09533 14.1465 8.48364 14.1465C8.87195 14.1465 9.18677 14.4613 9.18677 14.8496V16.2559ZM13.4055 19.7715H10.593C10.2047 19.7715 9.88989 19.4567 9.88989 19.0684C9.88989 18.6801 10.2047 18.3652 10.593 18.3652H13.4055C13.7938 18.3652 14.1086 18.6801 14.1086 19.0684C14.1086 19.4567 13.7938 19.7715 13.4055 19.7715ZM16.218 16.2559C16.218 16.6442 15.9032 16.959 15.5149 16.959C15.1266 16.959 14.8118 16.6442 14.8118 16.2559V14.8496C14.8118 14.4613 15.1266 14.1465 15.5149 14.1465C15.9032 14.1465 16.218 14.4613 16.218 14.8496V16.2559Z" fill="url(#paint2_linear_635_19564)"/>
<path d="M2.85864 8.40055C3.67708 8.11039 4.26489 7.32852 4.26489 6.41211C4.26489 5.24914 3.31849 4.30273 2.15552 4.30273C0.992549 4.30273 0.0461426 5.24914 0.0461426 6.41211C0.0461426 7.32852 0.633955 8.11039 1.45239 8.40055C1.45239 9.6943 1.45239 10.6595 1.45192 11.3809L2.00739 11.222C2.22724 10.7148 2.5113 10.2287 2.85864 9.7768V8.40055Z" fill="url(#paint3_linear_635_19564)"/>
<path d="M20.9524 0.0371094H12.2336C10.5536 0.0371094 9.18677 1.40394 9.18677 3.08398V12.0371C9.18677 12.2808 9.31296 12.5071 9.52024 12.6352C9.63316 12.705 9.76136 12.7402 9.88994 12.7402C9.99738 12.7402 10.1051 12.7156 10.2044 12.666L12.8684 11.334H20.9524C22.6324 11.334 23.9993 9.96716 23.9993 8.28711V3.08398C23.9993 1.40394 22.6324 0.0371094 20.9524 0.0371094ZM20.4368 7.81836H12.7493C12.361 7.81836 12.0461 7.50355 12.0461 7.11523C12.0461 6.72692 12.361 6.41211 12.7493 6.41211H20.4368C20.8251 6.41211 21.1399 6.72692 21.1399 7.11523C21.1399 7.50355 20.8251 7.81836 20.4368 7.81836ZM20.4368 5.00586H12.7493C12.361 5.00586 12.0461 4.69105 12.0461 4.30273C12.0461 3.91442 12.361 3.59961 12.7493 3.59961H20.4368C20.8251 3.59961 21.1399 3.91442 21.1399 4.30273C21.1399 4.69105 20.8251 5.00586 20.4368 5.00586Z" fill="url(#paint4_linear_635_19564)"/>
</g>
<defs>
<linearGradient id="paint0_linear_635_19564" x1="-0.000732422" y1="12.8184" x2="1.62332" y2="12.838" gradientUnits="userSpaceOnUse">
<stop stop-color="#5B58F5"/>
<stop offset="1" stop-color="#0F77FF"/>
</linearGradient>
<linearGradient id="paint1_linear_635_19564" x1="22.4583" y1="12.8184" x2="24.0828" y2="12.838" gradientUnits="userSpaceOnUse">
<stop stop-color="#5B58F5"/>
<stop offset="1" stop-color="#0F77FF"/>
</linearGradient>
<linearGradient id="paint2_linear_635_19564" x1="2.85864" y1="8.54211" x2="22.0473" y2="9.76187" gradientUnits="userSpaceOnUse">
<stop stop-color="#5B58F5"/>
<stop offset="1" stop-color="#0F77FF"/>
</linearGradient>
<linearGradient id="paint3_linear_635_19564" x1="0.0461426" y1="4.30273" x2="4.48761" y2="4.44536" gradientUnits="userSpaceOnUse">
<stop stop-color="#5B58F5"/>
<stop offset="1" stop-color="#0F77FF"/>
</linearGradient>
<linearGradient id="paint4_linear_635_19564" x1="9.18677" y1="0.0371094" x2="24.736" y2="1.01398" gradientUnits="userSpaceOnUse">
<stop stop-color="#5B58F5"/>
<stop offset="1" stop-color="#0F77FF"/>
</linearGradient>
<clipPath id="clip0_635_19564">
<rect width="24" height="24" fill="white" transform="translate(-0.000732422 0.0371094)"/>
</clipPath>
</defs>
</svg>
