<svg width="12" height="13" viewBox="0 0 12 13" fill="none" xmlns="http://www.w3.org/2000/svg">
<path d="M11.2412 2.63594C11.0247 2.42066 10.7319 2.2998 10.4267 2.2998C10.1214 2.2998 9.82856 2.42066 9.61216 2.63594L4.25236 7.99046L2.63128 6.36986C2.52461 6.26148 2.39754 6.17528 2.25739 6.11625C2.11724 6.05722 1.96679 6.02652 1.81472 6.02592C1.66265 6.02532 1.51197 6.05484 1.37136 6.11277C1.23076 6.1707 1.10301 6.2559 0.995496 6.36344C0.887981 6.47099 0.802823 6.59876 0.744934 6.73938C0.687045 6.88001 0.657572 7.0307 0.658213 7.18277C0.658855 7.33484 0.689599 7.48528 0.748672 7.62541C0.807745 7.76554 0.893978 7.89259 1.0024 7.99922L3.44032 10.4377C3.54725 10.5448 3.67424 10.6298 3.81403 10.6877C3.95382 10.7457 4.10367 10.7755 4.255 10.7755C4.40633 10.7755 4.55618 10.7457 4.69597 10.6877C4.83576 10.6298 4.96275 10.5448 5.06968 10.4377L11.2412 4.26578C11.4569 4.04943 11.578 3.75638 11.578 3.45086C11.578 3.14535 11.4569 2.85229 11.2412 2.63594Z" fill="#5B58F5"/>
</svg>
