<svg width="24" height="25" viewBox="0 0 24 25" fill="none" xmlns="http://www.w3.org/2000/svg">
<path d="M20.4846 3.55136C18.218 1.28486 15.2046 0.0366211 11.9993 0.0366211C8.79395 0.0366211 5.7805 1.28486 3.51396 3.55136C1.2475 5.81786 -0.000732422 8.83131 -0.000732422 12.0366C-0.000732422 15.2419 1.2475 18.2554 3.51396 20.5219C5.7805 22.7884 8.79395 24.0366 11.9993 24.0366C15.2046 24.0366 18.218 22.7884 20.4846 20.5219C22.751 18.2554 23.9993 15.2419 23.9993 12.0366C23.9993 8.83131 22.751 5.81786 20.4846 3.55136ZM11.9993 22.6304C8.86478 22.6304 6.04441 21.2615 4.10308 19.0908C5.3066 15.9002 8.38745 13.6304 11.9993 13.6304C9.6693 13.6304 7.78052 11.7416 7.78052 9.41162C7.78052 7.08165 9.6693 5.19287 11.9993 5.19287C14.3292 5.19287 16.218 7.08165 16.218 9.41162C16.218 11.7416 14.3292 13.6304 11.9993 13.6304C15.6111 13.6304 18.6919 15.9002 19.8955 19.0908C17.9541 21.2615 15.1338 22.6304 11.9993 22.6304Z" fill="url(#paint0_linear_635_19519)"/>
<defs>
<linearGradient id="paint0_linear_635_19519" x1="-0.000732422" y1="0.0366211" x2="25.2191" y2="1.39542" gradientUnits="userSpaceOnUse">
<stop stop-color="#5B58F5"/>
<stop offset="1" stop-color="#0F77FF"/>
</linearGradient>
</defs>
</svg>
