<svg width="78" height="78" viewBox="0 0 78 78" fill="none" xmlns="http://www.w3.org/2000/svg">
<rect opacity="0.6" x="0.0449219" width="77.9102" height="77.9102" rx="14" fill="#C5E9FF"/>
<path opacity="0.4" d="M27.2556 44.8599L34.0506 51.6549C36.8406 54.4449 41.3706 54.4449 44.1756 51.6549L50.7606 45.0699C53.5506 42.2799 53.5506 37.7499 50.7606 34.9449L43.9506 28.1649C42.5256 26.7399 40.5606 25.9749 38.5506 26.0799L31.0506 26.4399C28.0506 26.5749 25.6656 28.9599 25.5156 31.9449L25.1556 39.4449C25.0656 41.4699 25.8306 43.4349 27.2556 44.8599Z" fill="#0F77FF"/>
<path d="M35.2487 40.4803C37.6346 40.4803 39.5687 38.5462 39.5687 36.1603C39.5687 33.7745 37.6346 31.8403 35.2487 31.8403C32.8628 31.8403 30.9287 33.7745 30.9287 36.1603C30.9287 38.5462 32.8628 40.4803 35.2487 40.4803Z" fill="#0F77FF"/>
<path d="M40.4992 48.5358C40.2142 48.5358 39.9292 48.4308 39.7042 48.2058C39.2692 47.7708 39.2692 47.0508 39.7042 46.6158L45.7042 40.6158C46.1392 40.1808 46.8592 40.1808 47.2942 40.6158C47.7292 41.0508 47.7292 41.7708 47.2942 42.2058L41.2942 48.2058C41.0692 48.4308 40.7842 48.5358 40.4992 48.5358Z" fill="#0F77FF"/>
</svg>
