<svg width="25" height="25" viewBox="0 0 25 25" fill="none" xmlns="http://www.w3.org/2000/svg">
<g clip-path="url(#clip0_635_19524)">
<path d="M15.9164 12.8555C15.5897 14.4582 14.1227 15.668 12.425 15.668C10.7274 15.668 9.30723 14.4582 8.98056 12.8555H7.57422C7.91908 15.2344 9.95214 17.0742 12.425 17.0742C14.8979 17.0742 16.9779 15.2344 17.3227 12.8555H15.9164Z" fill="url(#paint0_linear_635_19524)"/>
<path d="M18.7297 12.8555C18.3747 16.0109 15.6745 18.4805 12.4258 18.4805C9.17702 18.4805 6.5237 16.0109 6.16872 12.8555H0.425781V13.5586C0.425781 13.8614 0.620125 14.1306 0.907141 14.226L3.80017 15.1702C3.92172 15.5149 4.05011 15.8287 4.18745 16.1184L2.85259 18.8004C2.71802 19.071 2.77155 19.3971 2.98511 19.6107L4.96745 21.593C5.18237 21.8079 5.50783 21.8587 5.77769 21.7255L8.45973 20.3907C8.74952 20.528 9.0633 20.6564 9.40797 20.778L10.3521 23.671C10.4476 23.958 10.7167 24.1523 11.0195 24.1523H13.8789C14.1817 24.1523 14.4509 23.958 14.5463 23.671L15.4905 20.778C15.8352 20.6564 16.149 20.528 16.4387 20.3907L19.1208 21.7255C19.3906 21.8594 19.7168 21.8079 19.931 21.593L21.9133 19.6107C22.1269 19.3971 22.1804 19.071 22.0458 18.8004L20.711 16.1184C20.8483 15.8286 20.9767 15.5148 21.0983 15.1702L23.9444 14.226C24.2314 14.1306 24.4258 13.8614 24.4258 13.5586V12.8555H18.7297Z" fill="url(#paint1_linear_635_19524)"/>
<path d="M10.4453 12.8555C10.7365 13.6721 11.5097 14.2617 12.4252 14.2617C13.3406 14.2617 14.1607 13.6721 14.4519 12.8555H10.4453Z" fill="url(#paint2_linear_635_19524)"/>
<path d="M12.4258 0.152344C10.8746 0.152344 9.61328 1.4137 9.61328 2.96484C9.61328 4.51598 10.8746 5.77734 12.4258 5.77734C13.9769 5.77734 15.2852 4.51598 15.2852 2.96484C15.2852 1.4137 13.9769 0.152344 12.4258 0.152344Z" fill="url(#paint3_linear_635_19524)"/>
<path d="M19.5039 0.152344C17.9528 0.152344 16.6914 1.4137 16.6914 2.96484C16.6914 4.51598 17.9528 5.77734 19.5039 5.77734C21.055 5.77734 22.3164 4.51598 22.3164 2.96484C22.3164 1.4137 21.055 0.152344 19.5039 0.152344Z" fill="url(#paint4_linear_635_19524)"/>
<path d="M5.39453 0.152344C3.84339 0.152344 2.58203 1.4137 2.58203 2.96484C2.58203 4.51598 3.84339 5.77734 5.39453 5.77734C6.94567 5.77734 8.20703 4.51598 8.20703 2.96484C8.20703 1.4137 6.94567 0.152344 5.39453 0.152344Z" fill="url(#paint5_linear_635_19524)"/>
<path d="M21.9022 6.42773C21.2202 6.90159 20.3955 7.18322 19.5039 7.18322C18.616 7.18322 17.7938 6.90459 17.1134 6.43434C16.805 6.61139 16.5086 6.81047 16.2402 7.05052C17.6076 8.07267 18.557 9.66905 18.7578 11.4488H24.4257V10.7457C24.4257 8.90714 23.4001 7.27266 21.9022 6.42773Z" fill="url(#paint6_linear_635_19524)"/>
<path d="M12.4265 7.18359C9.95108 7.18359 7.89664 9.06727 7.55469 11.4492H17.345C17.0031 9.06727 14.9018 7.18359 12.4265 7.18359Z" fill="url(#paint7_linear_635_19524)"/>
<path d="M7.78501 6.43434C7.10462 6.90459 6.28244 7.18322 5.39453 7.18322C4.50292 7.18322 3.67816 6.90159 2.99617 6.42773C1.49833 7.27266 0.425781 8.90714 0.425781 10.7457V11.4488H6.14059C6.34141 9.66905 7.29076 8.07267 8.65816 7.05052C8.38975 6.81047 8.09341 6.61139 7.78501 6.43434Z" fill="url(#paint8_linear_635_19524)"/>
</g>
<defs>
<linearGradient id="paint0_linear_635_19524" x1="7.57422" y1="12.8555" x2="17.6911" y2="14.115" gradientUnits="userSpaceOnUse">
<stop stop-color="#5B58F5"/>
<stop offset="1" stop-color="#0F77FF"/>
</linearGradient>
<linearGradient id="paint1_linear_635_19524" x1="0.425781" y1="12.8555" x2="25.3918" y2="15.7131" gradientUnits="userSpaceOnUse">
<stop stop-color="#5B58F5"/>
<stop offset="1" stop-color="#0F77FF"/>
</linearGradient>
<linearGradient id="paint2_linear_635_19524" x1="10.4453" y1="12.8555" x2="14.5706" y2="13.4887" gradientUnits="userSpaceOnUse">
<stop stop-color="#5B58F5"/>
<stop offset="1" stop-color="#0F77FF"/>
</linearGradient>
<linearGradient id="paint3_linear_635_19524" x1="9.61328" y1="0.152344" x2="15.5732" y2="0.476126" gradientUnits="userSpaceOnUse">
<stop stop-color="#5B58F5"/>
<stop offset="1" stop-color="#0F77FF"/>
</linearGradient>
<linearGradient id="paint4_linear_635_19524" x1="16.6914" y1="0.152344" x2="22.6023" y2="0.470812" gradientUnits="userSpaceOnUse">
<stop stop-color="#5B58F5"/>
<stop offset="1" stop-color="#0F77FF"/>
</linearGradient>
<linearGradient id="paint5_linear_635_19524" x1="2.58203" y1="0.152344" x2="8.49294" y2="0.470812" gradientUnits="userSpaceOnUse">
<stop stop-color="#5B58F5"/>
<stop offset="1" stop-color="#0F77FF"/>
</linearGradient>
<linearGradient id="paint6_linear_635_19524" x1="16.2402" y1="6.42773" x2="24.8007" y2="7.17963" gradientUnits="userSpaceOnUse">
<stop stop-color="#5B58F5"/>
<stop offset="1" stop-color="#0F77FF"/>
</linearGradient>
<linearGradient id="paint7_linear_635_19524" x1="7.55469" y1="7.18359" x2="17.7171" y2="8.44028" gradientUnits="userSpaceOnUse">
<stop stop-color="#5B58F5"/>
<stop offset="1" stop-color="#0F77FF"/>
</linearGradient>
<linearGradient id="paint8_linear_635_19524" x1="0.425781" y1="6.42773" x2="9.03452" y2="7.1882" gradientUnits="userSpaceOnUse">
<stop stop-color="#5B58F5"/>
<stop offset="1" stop-color="#0F77FF"/>
</linearGradient>
<clipPath id="clip0_635_19524">
<rect width="24" height="24" fill="white" transform="translate(0.425781 0.152344)"/>
</clipPath>
</defs>
</svg>
