<svg width="19" height="19" viewBox="0 0 19 19" fill="none" xmlns="http://www.w3.org/2000/svg">
<g clip-path="url(#clip0_1432_109297)">
<path d="M16.421 6.68407L16.5776 6.79637H16.7235V6.51543L17.1837 6.47082L17.6207 6.79637H18.3391L18.3896 6.7502C18.3176 6.50799 18.2366 6.27009 18.1458 6.03688L17.6771 6.04471L17.4419 5.78646L17.3965 5.3713L17.1555 5.50278L17.0264 6.01028L16.6785 5.64012L16.6644 5.29031L16.3287 5.00115L16.2051 4.87789H15.8157L15.9382 5.22496L16.407 5.48634L16.4884 5.57282L16.3866 5.62368L16.3913 5.89876L16.1628 5.99423L15.9679 5.95158L15.8459 5.77902L16.1632 5.79585L16.2489 5.68042L15.5465 5.20657L15.4925 5.00467L15.2073 5.26292L14.9181 5.20344L14.4779 5.77589L14.3911 6.0001L14.1093 6.02554L13.6926 6.02828L13.4434 5.91167L13.3698 5.41669L13.4594 5.18075L13.8836 5.08801L14.3461 5.18075L14.4028 4.92484L14.2064 4.87828L14.2733 4.47956L14.7389 4.40678L15.0645 3.94702L15.4006 3.89067L15.7038 3.93567H15.8157L15.7539 3.50369L15.3853 3.65238L15.2554 3.32957L15.0414 3.29983L15.0011 3.07875L15.1756 2.88859L15.5907 2.72581L15.6976 2.53486C14.1109 1.13718 12.0312 0.286133 9.75547 0.286133C7.78064 0.286133 5.95372 0.927062 4.468 2.00975L4.9219 2.00623L5.12419 2.11814L5.50531 2.20031L5.53504 2.35017L6.14115 2.37248L6.05898 2.17801L5.52057 2.16275L5.64734 2.0434L5.60313 1.90098H5.11637L5.64734 1.5046H6.15602L6.39509 1.83407L6.79186 1.85637L7.03093 1.62434L7.21054 1.71394L6.88107 2.03558C6.88107 2.03558 6.42522 2.0438 6.44753 2.0438C6.46983 2.0438 6.48509 2.35761 6.48509 2.35761L7.03798 2.34235L7.09785 2.19327L7.47896 2.17057L7.52396 1.94637L7.29975 1.90841L7.37448 1.70651L7.54626 1.65446L8.14454 1.6842L7.81468 1.98354L7.8679 2.21518L8.21184 2.26761L8.18954 1.84893L8.51861 1.67677L9.10202 1.60947L9.94681 1.98354V2.30518L10.216 2.37248L10.081 2.62681H9.69951L9.58643 2.91832L8.71582 2.7129L9.40096 2.34783L9.13997 2.12597L8.54913 2.2007L8.49748 2.25431L8.49552 2.25353L8.48652 2.26605L8.31631 2.44291L8.03498 2.46599L8.05728 2.60608L8.15549 2.64677L8.15158 2.69294L7.92268 2.72542L7.90585 2.85806L7.68712 2.86941L7.6476 2.60568L7.25514 2.72503L6.453 3.19457L6.543 3.52521L6.76721 3.67155L7.21562 3.73337V4.24322L7.423 4.20996L7.61395 3.81163L8.09093 3.66059V3.04901L8.35623 2.84867L8.99755 3.0001L8.95255 3.4043H9.12471L9.59622 3.17266L9.61891 3.70325L9.96207 3.91258L9.94759 4.22718L9.61891 4.33909L9.64121 4.44317L10.0376 4.62355L10.0294 4.84033L9.91472 4.85011C9.91433 4.84659 9.91355 4.84424 9.91355 4.84424L9.41348 4.69007L9.39235 4.52964H9.39196L9.5383 4.42908V4.28274L9.38101 4.24322L9.34188 4.37822L9.06602 4.42087L9.03863 4.41187V4.42556L8.94316 4.44004L8.86529 4.28274L8.77529 4.24322H8.57887L8.48965 4.31678V4.47956L8.65752 4.53551L8.82342 4.55899L8.78625 4.57542L8.63482 4.74329L8.5683 4.65955L8.42196 4.62081L8.02324 4.99567L8.07528 5.03832L7.48678 5.36426L6.93311 5.94024L6.89516 6.19653L6.34031 6.56121L6.06524 6.83785L6.09576 7.39113L5.71425 7.21348L5.71699 6.88989L4.65543 6.89028L4.10567 7.16849L3.86699 7.60868L3.77229 7.95771L3.92685 8.29618L4.36001 8.349L5.04828 7.88885L5.10854 8.11697L4.89842 8.51373L5.42235 8.60334L5.47478 9.41252L6.1928 9.5346L6.64904 9.00715L7.20271 9.11984L7.39718 9.39022L7.92816 9.35891L7.94303 9.20201L8.23493 9.34365L8.564 9.85937L9.13215 9.8672L9.34188 10.2342L9.37162 10.6826L10 10.9217L10.7928 10.9299L11.0248 11.3107L11.3762 11.4233L11.3089 11.7383L10.9239 12.2274L10.8116 13.3109L10.4637 13.5856L9.94798 13.5703L9.77621 13.8693L9.90377 14.4312L9.34227 15.1488L9.16306 15.4783L8.62817 15.7349L8.2764 15.7885L8.26192 15.9376L8.50883 16.0084L8.47909 16.1693L8.25801 16.3821L8.39222 16.5516L8.6583 16.559L8.64343 16.764L8.57261 16.9663L8.54991 17.1307L8.94355 17.4621L8.89112 17.6342L8.35544 17.6241L7.82251 17.1592L7.40735 16.4295L7.46526 15.7252L7.15106 15.3061L7.27823 14.5959L7.09158 14.5439V13.003C7.09158 13.003 6.56804 12.6062 6.53791 12.6062C6.50778 12.6062 6.26088 12.5389 6.26088 12.5389L6.20845 12.2478L5.528 11.3948L5.5953 11.0884L5.6176 10.5872L6.08871 10.2577L6.02141 9.69659L5.33353 9.64494L4.79512 9.03141L4.41361 8.92576L4.1671 8.88037L4.19684 8.65616L3.88264 8.61155V8.73872L3.09693 8.54269L2.78077 8.05906L2.90951 7.82468L2.41218 7.09884L2.32688 6.56786H2.12497L2.19188 7.08358L2.53583 7.61455L2.49826 7.82428L2.20675 7.77929L1.84794 7.1677V6.45595L1.47387 6.27635V5.76416C1.01215 6.84646 0.755859 8.03675 0.755859 9.28613C0.755859 14.2488 4.79316 18.2861 9.75586 18.2861C12.5692 18.2861 15.0844 16.9878 16.736 14.9594H16.439V14.3611L16.0955 13.8986V13.1791L15.8333 12.9177L15.8103 12.6183L16.1436 11.9825L15.5125 10.8677L15.5864 10.1114L15.0183 10.0527L14.8089 9.84333H14.427L14.233 10.0225H13.5596L13.5369 10.0824H13.1624L12.3031 9.10301L12.3102 8.34L12.4522 8.28796L12.505 7.99606H12.3031L12.2206 7.68968L13.2148 6.97206V6.46339L13.7016 6.19301L13.8988 6.21257H14.2991L14.6125 6.04432L15.6224 5.96567V6.48178L16.421 6.68407ZM13.8965 3.47512L13.9786 3.34835L14.2744 3.28848L14.3484 3.64768L14.5057 3.90163L14.6102 4.02175L14.8007 4.0961L14.6211 4.30974L14.2733 4.343H14.0119L14.0412 4.03271L14.2588 3.98771L14.2404 3.84176L14.0377 3.71459L13.8961 3.61755L13.8965 3.47512ZM13.4109 4.03623L13.5905 3.74824L13.8327 3.6919L14.0048 3.76663L13.9892 3.9611L13.619 4.22287H13.4101V4.03623H13.4109ZM8.52096 5.14318L8.33353 5.15883L8.3437 5.02854L8.42744 4.92406L8.54013 5.01249L8.52096 5.14318ZM9.17793 4.91311L9.04998 4.92406L9.02415 5.04771L8.92555 5.10914L8.76747 5.12244C8.76199 5.08527 8.75886 5.0571 8.75886 5.0571H8.69743V4.92406H8.95529L9.0085 4.78672L9.11102 4.78476L9.22801 4.80902L9.17793 4.91311Z" fill="#3B3C40"/>
</g>
<defs>
<clipPath id="clip0_1432_109297">
<rect width="18" height="18" fill="white" transform="translate(0.572266 0.286133)"/>
</clipPath>
</defs>
</svg>
