<svg width="24" height="24" viewBox="0 0 24 24" fill="none" xmlns="http://www.w3.org/2000/svg">
<g id="vuesax/bold/magicpen">
<g id="magicpen">
<path id="Vector" d="M19.5017 7.5L18.0117 8.99L15.0117 5.99L16.5017 4.5C16.9217 4.08 17.4617 3.88 18.0017 3.88C18.5417 3.88 19.0817 4.08 19.5017 4.5C20.3317 5.33 20.3317 6.67 19.5017 7.5Z" fill="url(#paint0_linear_1861_47667)"/>
<path id="Vector_2" d="M17.3114 9.70001L6.50141 20.5C5.67141 21.33 4.33141 21.33 3.50141 20.5C2.67141 19.67 2.67141 18.33 3.50141 17.5L14.3114 6.70001L17.3114 9.70001Z" fill="url(#paint1_linear_1861_47667)"/>
<path id="Vector_3" d="M9.95051 3.50002L10.3605 2.11002C10.4005 1.98002 10.3605 1.84002 10.2705 1.74002C10.1805 1.64002 10.0205 1.60002 9.89051 1.64002L8.50051 2.05002L7.11051 1.64002C6.98051 1.60002 6.84051 1.64002 6.74051 1.73002C6.64051 1.83002 6.61051 1.97002 6.65051 2.10002L7.05051 3.50002L6.64051 4.89002C6.60051 5.02002 6.64051 5.16002 6.73051 5.26002C6.83051 5.36002 6.97051 5.39002 7.10051 5.35002L8.50051 4.95002L9.89051 5.36002C9.93051 5.37002 9.96051 5.38002 10.0005 5.38002C10.1005 5.38002 10.1905 5.34002 10.2705 5.27002C10.3705 5.17002 10.4005 5.03002 10.3605 4.90002L9.95051 3.50002Z" fill="url(#paint2_linear_1861_47667)"/>
<path id="Vector_4" d="M5.95051 9.50002L6.36051 8.11002C6.40051 7.98002 6.36051 7.84002 6.27051 7.74002C6.17051 7.64002 6.03051 7.61002 5.90051 7.65002L4.50051 8.05002L3.1105 7.64002C2.9805 7.60002 2.84051 7.64002 2.74051 7.73002C2.64051 7.83002 2.61051 7.97002 2.65051 8.10002L3.05051 9.50002L2.64051 10.89C2.60051 11.02 2.64051 11.16 2.73051 11.26C2.83051 11.36 2.9705 11.39 3.1005 11.35L4.4905 10.94L5.88051 11.35C5.91051 11.36 5.95051 11.36 5.9905 11.36C6.0905 11.36 6.18051 11.32 6.26051 11.25C6.36051 11.15 6.39051 11.01 6.35051 10.88L5.95051 9.50002Z" fill="url(#paint3_linear_1861_47667)"/>
<path id="Vector_5" d="M20.9517 14.5L21.3617 13.11C21.4017 12.98 21.3617 12.84 21.2717 12.74C21.1717 12.64 21.0317 12.61 20.9017 12.65L19.5117 13.06L18.1217 12.65C17.9917 12.61 17.8517 12.65 17.7517 12.74C17.6517 12.84 17.6217 12.98 17.6617 13.11L18.0717 14.5L17.6617 15.89C17.6217 16.02 17.6617 16.16 17.7517 16.26C17.8517 16.36 17.9917 16.39 18.1217 16.35L19.5117 15.94L20.9017 16.35C20.9317 16.36 20.9717 16.36 21.0117 16.36C21.1117 16.36 21.2017 16.32 21.2817 16.25C21.3817 16.15 21.4117 16.01 21.3717 15.88L20.9517 14.5Z" fill="url(#paint4_linear_1861_47667)"/>
</g>
</g>
<defs>
<linearGradient id="paint0_linear_1861_47667" x1="15.0117" y1="3.88" x2="20.3841" y2="4.1696" gradientUnits="userSpaceOnUse">
<stop stop-color="#5B58F5"/>
<stop offset="1" stop-color="#0F77FF"/>
</linearGradient>
<linearGradient id="paint1_linear_1861_47667" x1="2.87891" y1="6.70001" x2="18.0449" y2="7.51769" gradientUnits="userSpaceOnUse">
<stop stop-color="#5B58F5"/>
<stop offset="1" stop-color="#0F77FF"/>
</linearGradient>
<linearGradient id="paint2_linear_1861_47667" x1="6.625" y1="1.62451" x2="10.5684" y2="1.83681" gradientUnits="userSpaceOnUse">
<stop stop-color="#5B58F5"/>
<stop offset="1" stop-color="#0F77FF"/>
</linearGradient>
<linearGradient id="paint3_linear_1861_47667" x1="2.625" y1="7.62451" x2="6.56661" y2="7.83735" gradientUnits="userSpaceOnUse">
<stop stop-color="#5B58F5"/>
<stop offset="1" stop-color="#0F77FF"/>
</linearGradient>
<linearGradient id="paint4_linear_1861_47667" x1="17.6445" y1="12.6329" x2="21.5791" y2="12.8454" gradientUnits="userSpaceOnUse">
<stop stop-color="#5B58F5"/>
<stop offset="1" stop-color="#0F77FF"/>
</linearGradient>
</defs>
</svg>
