<svg width="24" height="25" viewBox="0 0 24 25" fill="none" xmlns="http://www.w3.org/2000/svg">
<g clip-path="url(#clip0_635_19599)">
<path d="M23.7877 4.85791L16.509 12.0897L23.7877 19.3216C23.9193 19.0465 23.9991 18.7425 23.9991 18.4179V5.76161C23.9991 5.43691 23.9193 5.13293 23.7877 4.85791Z" fill="url(#paint0_linear_635_19599)"/>
<path d="M21.8893 3.65186H2.10805C1.78335 3.65186 1.47936 3.73168 1.20435 3.86326L10.5073 13.1193C11.3299 13.9419 12.6675 13.9419 13.49 13.1193L22.793 3.86326C22.518 3.73168 22.214 3.65186 21.8893 3.65186Z" fill="url(#paint1_linear_635_19599)"/>
<path d="M0.210674 4.85791C0.0790957 5.13293 -0.000732422 5.43691 -0.000732422 5.76161V18.4179C-0.000732422 18.7426 0.0790957 19.0466 0.210674 19.3216L7.48938 12.0897L0.210674 4.85791Z" fill="url(#paint2_linear_635_19599)"/>
<path d="M15.5143 13.0835L14.4843 14.1135C13.1137 15.4841 10.8836 15.4841 9.51299 14.1135L8.48305 13.0835L1.20435 20.3153C1.47936 20.4469 1.78335 20.5267 2.10805 20.5267H21.8893C22.214 20.5267 22.518 20.4469 22.793 20.3153L15.5143 13.0835Z" fill="url(#paint3_linear_635_19599)"/>
</g>
<defs>
<linearGradient id="paint0_linear_635_19599" x1="16.509" y1="4.85791" x2="24.3966" y2="5.07798" gradientUnits="userSpaceOnUse">
<stop stop-color="#5B58F5"/>
<stop offset="1" stop-color="#0F77FF"/>
</linearGradient>
<linearGradient id="paint1_linear_635_19599" x1="1.20435" y1="3.65186" x2="23.6574" y2="6.24164" gradientUnits="userSpaceOnUse">
<stop stop-color="#5B58F5"/>
<stop offset="1" stop-color="#0F77FF"/>
</linearGradient>
<linearGradient id="paint2_linear_635_19599" x1="-0.000732422" y1="4.85791" x2="7.88679" y2="5.07798" gradientUnits="userSpaceOnUse">
<stop stop-color="#5B58F5"/>
<stop offset="1" stop-color="#0F77FF"/>
</linearGradient>
<linearGradient id="paint3_linear_635_19599" x1="1.20435" y1="13.0835" x2="23.4138" y2="16.5542" gradientUnits="userSpaceOnUse">
<stop stop-color="#5B58F5"/>
<stop offset="1" stop-color="#0F77FF"/>
</linearGradient>
<clipPath id="clip0_635_19599">
<rect width="24" height="24" fill="white" transform="translate(-0.000732422 0.0893555)"/>
</clipPath>
</defs>
</svg>
