<svg width="24" height="25" viewBox="0 0 24 25" fill="none" xmlns="http://www.w3.org/2000/svg">
<g clip-path="url(#clip0_635_19614)">
<path d="M21.8931 10.054L12.5327 0.692219C11.9806 0.14153 11.0876 0.148046 10.5428 0.691516C9.99486 1.24085 9.99486 2.13278 10.5428 2.68141L19.9045 12.0425C20.453 12.5909 21.3446 12.5909 21.8931 12.0425C22.443 11.4926 22.443 10.6038 21.8931 10.054Z" fill="url(#paint0_linear_635_19614)"/>
<path d="M9.8487 3.9751L9.77824 4.32825C9.28198 6.81067 8.07588 9.169 6.44458 11.0804L11.5374 16.1733C13.4486 14.5423 15.7745 13.3038 18.257 12.8069L18.6108 12.7365L9.8487 3.9751Z" fill="url(#paint1_linear_635_19614)"/>
<path d="M5.51009 12.1353L2.02948 15.6152C1.20705 16.4376 1.20363 17.7728 2.02948 18.5986L4.01801 20.5872C4.84044 21.4096 6.17563 21.413 7.00147 20.5872L10.4818 17.1069L5.51009 12.1353ZM6.00725 17.6044C5.73261 17.879 5.28763 17.879 5.01298 17.6044C4.73834 17.3298 4.73834 16.8848 5.01298 16.6101L6.00725 15.6159C6.28189 15.3412 6.72688 15.3412 7.00152 15.6159C7.27616 15.8905 7.27616 16.3355 7.00152 16.6101L6.00725 17.6044Z" fill="url(#paint2_linear_635_19614)"/>
<path d="M13.4189 20.9622L14.3754 20.0057C15.2013 19.1799 15.1986 17.8447 14.3755 17.023L13.665 16.312C13.2724 16.5758 12.8974 16.8624 12.5328 17.1682L13.3812 18.0179C13.6552 18.2905 13.6571 18.7341 13.3812 19.0115L12.4089 19.9837L10.9801 18.5994L8.99146 20.588L12.1816 23.6793C12.726 24.2251 13.6199 24.2282 14.1695 23.6786C14.7181 23.1299 14.7181 22.238 14.1695 21.6893L13.4189 20.9622Z" fill="url(#paint3_linear_635_19614)"/>
<path d="M16.259 0.0893555C15.8704 0.0893555 15.5559 0.40384 15.5559 0.792482V2.19873C15.5559 2.58738 15.8704 2.90186 16.259 2.90186C16.6477 2.90186 16.9622 2.58738 16.9622 2.19873V0.792482C16.9622 0.40384 16.6477 0.0893555 16.259 0.0893555Z" fill="url(#paint4_linear_635_19614)"/>
<path d="M21.884 5.71436H20.4778C20.0891 5.71436 19.7747 6.02884 19.7747 6.41748C19.7747 6.80612 20.0891 7.12061 20.4778 7.12061H21.884C22.2727 7.12061 22.5872 6.80612 22.5872 6.41748C22.5872 6.02884 22.2727 5.71436 21.884 5.71436Z" fill="url(#paint5_linear_635_19614)"/>
<path d="M20.9749 1.70159C20.7003 1.42695 20.2553 1.42695 19.9806 1.70159L18.5744 3.10784C18.2997 3.38248 18.2997 3.82747 18.5744 4.10211C18.849 4.37675 19.294 4.37679 19.5687 4.10211L20.9749 2.69585C21.2496 2.42121 21.2496 1.97623 20.9749 1.70159Z" fill="url(#paint6_linear_635_19614)"/>
</g>
<defs>
<linearGradient id="paint0_linear_635_19614" x1="10.1318" y1="0.281555" x2="22.9243" y2="0.970867" gradientUnits="userSpaceOnUse">
<stop stop-color="#5B58F5"/>
<stop offset="1" stop-color="#0F77FF"/>
</linearGradient>
<linearGradient id="paint1_linear_635_19614" x1="6.44458" y1="3.9751" x2="19.2293" y2="4.66211" gradientUnits="userSpaceOnUse">
<stop stop-color="#5B58F5"/>
<stop offset="1" stop-color="#0F77FF"/>
</linearGradient>
<linearGradient id="paint2_linear_635_19614" x1="1.41138" y1="12.1353" x2="10.9428" y2="12.6488" gradientUnits="userSpaceOnUse">
<stop stop-color="#5B58F5"/>
<stop offset="1" stop-color="#0F77FF"/>
</linearGradient>
<linearGradient id="paint3_linear_635_19614" x1="8.99146" y1="16.312" x2="15.3063" y2="16.5746" gradientUnits="userSpaceOnUse">
<stop stop-color="#5B58F5"/>
<stop offset="1" stop-color="#0F77FF"/>
</linearGradient>
<linearGradient id="paint4_linear_635_19614" x1="15.5559" y1="0.0893555" x2="17.0369" y2="0.129251" gradientUnits="userSpaceOnUse">
<stop stop-color="#5B58F5"/>
<stop offset="1" stop-color="#0F77FF"/>
</linearGradient>
<linearGradient id="paint5_linear_635_19614" x1="19.7747" y1="5.71436" x2="22.7047" y2="6.03008" gradientUnits="userSpaceOnUse">
<stop stop-color="#5B58F5"/>
<stop offset="1" stop-color="#0F77FF"/>
</linearGradient>
<linearGradient id="paint6_linear_635_19614" x1="18.3684" y1="1.49561" x2="21.3238" y2="1.65484" gradientUnits="userSpaceOnUse">
<stop stop-color="#5B58F5"/>
<stop offset="1" stop-color="#0F77FF"/>
</linearGradient>
<clipPath id="clip0_635_19614">
<rect width="24" height="24" fill="white" transform="translate(-0.000732422 0.0893555)"/>
</clipPath>
</defs>
</svg>
