<svg width="24" height="25" viewBox="0 0 24 25" fill="none" xmlns="http://www.w3.org/2000/svg">
<g clip-path="url(#clip0_635_19572)">
<path d="M18.3274 11.7553L12.7024 13.6303L18.3274 15.5053L23.9524 13.6303L18.3274 11.7553Z" fill="url(#paint0_linear_635_19572)"/>
<path d="M0.0461426 13.6303L5.67114 15.5053L11.2961 13.6303L5.67114 11.7553L0.0461426 13.6303Z" fill="url(#paint1_linear_635_19572)"/>
<path d="M12.2216 0.0726914C12.0773 0.0245977 11.9212 0.0245977 11.7769 0.0726914L6.37427 1.87358L11.9993 3.74858L17.6243 1.87358L12.2216 0.0726914Z" fill="url(#paint2_linear_635_19572)"/>
<path d="M6.37427 24.0366L11.2961 22.396V15.1127L6.37427 16.7533V24.0366Z" fill="url(#paint3_linear_635_19572)"/>
<path d="M0.0461426 21.8892C0.0461426 22.1919 0.239783 22.4606 0.526939 22.5562L4.96802 24.0366V16.7533L0.0461426 15.1127V21.8892Z" fill="url(#paint4_linear_635_19572)"/>
<path d="M12.7024 22.396L17.6243 24.0366V16.7533L12.7024 15.1127V22.396Z" fill="url(#paint5_linear_635_19572)"/>
<path d="M19.0305 24.0366L23.4716 22.5562C23.7587 22.4605 23.9524 22.1918 23.9524 21.8892V15.1127L19.0305 16.7533V24.0366Z" fill="url(#paint6_linear_635_19572)"/>
<path d="M6.37427 10.771L11.2961 12.4116V4.99654L6.37427 3.35587V10.771Z" fill="url(#paint7_linear_635_19572)"/>
<path d="M17.6243 10.771V3.35587L12.7024 4.99654V12.4116L17.6243 10.771Z" fill="url(#paint8_linear_635_19572)"/>
</g>
<defs>
<linearGradient id="paint0_linear_635_19572" x1="12.7024" y1="11.7553" x2="24.2567" y2="13.6229" gradientUnits="userSpaceOnUse">
<stop stop-color="#5B58F5"/>
<stop offset="1" stop-color="#0F77FF"/>
</linearGradient>
<linearGradient id="paint1_linear_635_19572" x1="0.0461426" y1="11.7553" x2="11.6004" y2="13.6229" gradientUnits="userSpaceOnUse">
<stop stop-color="#5B58F5"/>
<stop offset="1" stop-color="#0F77FF"/>
</linearGradient>
<linearGradient id="paint2_linear_635_19572" x1="6.37427" y1="0.0366211" x2="17.9225" y2="1.92234" gradientUnits="userSpaceOnUse">
<stop stop-color="#5B58F5"/>
<stop offset="1" stop-color="#0F77FF"/>
</linearGradient>
<linearGradient id="paint3_linear_635_19572" x1="6.37427" y1="15.1127" x2="11.5567" y2="15.2667" gradientUnits="userSpaceOnUse">
<stop stop-color="#5B58F5"/>
<stop offset="1" stop-color="#0F77FF"/>
</linearGradient>
<linearGradient id="paint4_linear_635_19572" x1="0.0461426" y1="15.1127" x2="5.22862" y2="15.2667" gradientUnits="userSpaceOnUse">
<stop stop-color="#5B58F5"/>
<stop offset="1" stop-color="#0F77FF"/>
</linearGradient>
<linearGradient id="paint5_linear_635_19572" x1="12.7024" y1="15.1127" x2="17.8849" y2="15.2667" gradientUnits="userSpaceOnUse">
<stop stop-color="#5B58F5"/>
<stop offset="1" stop-color="#0F77FF"/>
</linearGradient>
<linearGradient id="paint6_linear_635_19572" x1="19.0305" y1="15.1127" x2="24.213" y2="15.2667" gradientUnits="userSpaceOnUse">
<stop stop-color="#5B58F5"/>
<stop offset="1" stop-color="#0F77FF"/>
</linearGradient>
<linearGradient id="paint7_linear_635_19572" x1="6.37427" y1="3.35587" x2="11.5569" y2="3.50763" gradientUnits="userSpaceOnUse">
<stop stop-color="#5B58F5"/>
<stop offset="1" stop-color="#0F77FF"/>
</linearGradient>
<linearGradient id="paint8_linear_635_19572" x1="12.7024" y1="3.35587" x2="17.885" y2="3.50763" gradientUnits="userSpaceOnUse">
<stop stop-color="#5B58F5"/>
<stop offset="1" stop-color="#0F77FF"/>
</linearGradient>
<clipPath id="clip0_635_19572">
<rect width="24" height="24" fill="white" transform="translate(-0.000732422 0.0366211)"/>
</clipPath>
</defs>
</svg>
