<svg width="64" height="65" viewBox="0 0 64 65" fill="none" xmlns="http://www.w3.org/2000/svg">
<g clip-path="url(#clip0_635_19683)">
<path d="M-0.00195312 17.3622V39.4499H7.0113C7.86855 39.4499 8.46392 38.6093 8.19342 37.7958C8.0153 37.2601 7.93067 36.6817 7.9593 36.0797C8.0753 33.6412 10.0859 31.6707 12.5262 31.6008C15.1909 31.5244 17.3752 33.6619 17.3752 36.3094C17.3752 36.8369 17.2883 37.3442 17.1283 37.8176C16.8568 38.6204 17.4704 39.4498 18.3179 39.4498H25.2263V32.5413C25.2263 31.6841 26.0669 31.0887 26.8804 31.3592C27.4162 31.5373 27.9945 31.6219 28.5965 31.5933C31.035 31.4773 33.0055 29.4667 33.0754 27.0264C33.1518 24.3617 31.0143 22.1774 28.3668 22.1774C27.8393 22.1774 27.332 22.2643 26.8587 22.4243C26.0558 22.6958 25.2264 22.0822 25.2264 21.2347V14.2217H3.13855C1.40405 14.2218 -0.00195312 15.6278 -0.00195312 17.3622Z" fill="#56BFFF"/>
<path d="M7.9593 36.0784C7.93067 36.6804 8.01517 37.2588 8.19342 37.7945C8.46392 38.6079 7.86855 39.4486 7.0113 39.4486H-0.00195312V61.5364C-0.00195312 63.2709 1.40405 64.6769 3.13855 64.6769H25.2263V57.6636C25.2263 56.8064 24.3857 56.211 23.5722 56.4815C23.0364 56.6596 22.458 56.7443 21.856 56.7156C19.4175 56.5996 17.447 54.589 17.3772 52.1488C17.3008 49.484 19.4383 47.2998 22.0858 47.2998C22.6133 47.2998 23.1205 47.3866 23.5939 47.5466C24.3968 47.8181 25.2262 47.2045 25.2262 46.357V39.4486H18.3178C17.4703 39.4486 16.8567 38.6193 17.1282 37.8164C17.2883 37.3429 17.375 36.8358 17.375 36.3083C17.375 33.6606 15.1909 31.5233 12.526 31.5996C10.0859 31.6694 8.0753 33.6399 7.9593 36.0784Z" fill="#FFF05F"/>
<path d="M40.4237 8.87116C40.9594 8.69303 41.5379 8.60841 42.1398 8.63703C44.5783 8.75303 46.5488 10.7637 46.6187 13.2039C46.695 15.8687 44.5575 18.0529 41.91 18.0529C41.3825 18.0529 40.8753 17.966 40.4019 17.806C39.599 17.5345 38.7697 18.1482 38.7697 18.9957V25.904H45.6782C46.5354 25.904 47.1308 26.7447 46.8603 27.5582C46.6822 28.0939 46.5975 28.6724 46.6262 29.2743C46.7422 31.7128 48.7528 33.6833 51.193 33.7532C53.8578 33.8295 56.042 31.692 56.042 29.0445C56.042 28.517 55.9552 28.0098 55.7952 27.5364C55.5237 26.7335 56.1373 25.9042 56.9848 25.9042H63.9978V3.81641C63.9978 2.08178 62.5917 0.675781 60.8573 0.675781H38.7695V7.68903C38.7695 8.54628 39.6102 9.14178 40.4237 8.87116Z" fill="#7270FF"/>
<path d="M21.8579 56.7143C19.4194 56.5981 17.4489 54.5874 17.3792 52.1471C17.3029 49.4825 19.4404 47.2984 22.0878 47.2984C22.6153 47.2984 23.1225 47.3853 23.596 47.5453C24.3989 47.8168 25.2283 47.2031 25.2283 46.3556V39.4473L0.919922 63.7558C1.48817 64.324 2.2733 64.6755 3.14055 64.6755H25.2283V57.6623C25.2283 56.805 24.3877 56.2096 23.5742 56.4801C23.0384 56.6584 22.4599 56.7429 21.8579 56.7143Z" fill="#FFD737"/>
<path d="M63.0779 1.59668L38.7695 25.9051H45.678C46.5353 25.9051 47.1307 26.7457 46.8602 27.5592C46.6819 28.0949 46.5974 28.6734 46.626 29.2754C46.7422 31.7139 48.7529 33.6844 51.1932 33.7542C53.8578 33.8303 56.0418 31.6929 56.0418 29.0454C56.0418 28.5179 55.9549 28.0107 55.7949 27.5373C55.5234 26.7344 56.137 25.9051 56.9845 25.9051H63.9975V3.8173C63.9978 2.95005 63.6463 2.16493 63.0779 1.59668Z" fill="#605EFB"/>
<path d="M33.0807 42.8175C33.052 42.2155 33.1365 41.6371 33.3148 41.1014C33.5853 40.288 32.9899 39.4473 32.1327 39.4473H25.2242V46.3558C25.2242 47.213 24.3835 47.8084 23.57 47.5379C23.0343 47.3598 22.4559 47.2751 21.8539 47.3038C19.4154 47.4198 17.4449 49.4304 17.375 51.8706C17.2987 54.5354 19.4362 56.7196 22.0837 56.7196C22.6112 56.7196 23.1184 56.6328 23.5918 56.4728C24.3947 56.2013 25.224 56.8149 25.224 57.6624V64.6754H47.3118C49.0462 64.6754 50.4523 63.2694 50.4523 61.5349V39.4473H43.4393C42.5918 39.4473 41.9782 40.2766 42.2497 41.0795C42.4098 41.553 42.4965 42.0601 42.4965 42.5876C42.4965 45.2353 40.3124 47.3726 37.6475 47.2963C35.2073 47.2265 33.1967 45.256 33.0807 42.8175Z" fill="#FF4F44"/>
</g>
<defs>
<clipPath id="clip0_635_19683">
<rect width="64" height="64" fill="white" transform="translate(-0.00195312 0.675781)"/>
</clipPath>
</defs>
</svg>
