<svg width="65" height="65" viewBox="0 0 65 65" fill="none" xmlns="http://www.w3.org/2000/svg">
<g clip-path="url(#clip0_635_19762)">
<g clip-path="url(#clip1_635_19762)">
<path d="M34.6807 64.6748H0.930664V30.9248H34.6807V64.6748Z" fill="#FF5959"/>
<path d="M17.8057 30.9248H34.6807V64.6748H17.8057V30.9248Z" fill="#FF4F44"/>
<path d="M64.9307 64.6748H38.6807V23.4248H64.9307V64.6748Z" fill="#ECF2FF"/>
<path d="M51.8057 23.4248H64.9307V64.6748H51.8057V23.4248Z" fill="#D9E5FF"/>
<path d="M0.930664 0.674805V23.0997L14.0557 21.2998L34.6807 23.1748V0.674805H0.930664Z" fill="#5A7380"/>
<path d="M17.8057 21.6406L34.6807 23.1748V0.674805H17.8057V21.6406Z" fill="#475E66"/>
<path d="M64.9307 19.4248H38.6807V0.674805H64.9307V19.4248Z" fill="#D1BAFF"/>
<path d="M12.1807 58.8034V36.7979L28.6858 47.8006L12.1807 58.8034Z" fill="#ECF2FF"/>
<path d="M46.1807 30.9248H57.4307V34.6748H46.1807V30.9248Z" fill="#BFD6FF"/>
<path d="M46.1807 38.4248H57.4307V42.1748H46.1807V38.4248Z" fill="#BFD6FF"/>
<path d="M46.1807 45.9248H57.4307V49.6748H46.1807V45.9248Z" fill="#BFD6FF"/>
<path d="M46.1807 53.4248H57.4307V57.1748H46.1807V53.4248Z" fill="#BFD6FF"/>
<path d="M34.6807 23.1748V26.9248H0.930664V23.0997L10.3057 13.7998L14.0557 17.5498L21.5557 10.0498L34.6807 23.1748Z" fill="#8CD96B"/>
<path d="M17.8057 13.7998V26.9248H34.6807V23.1748L21.5557 10.0498L17.8057 13.7998Z" fill="#5AB267"/>
<path d="M51.8057 0.674805H64.9307V19.4248H51.8057V0.674805Z" fill="#AA99FF"/>
<path d="M51.8057 53.4248H57.4307V57.1748H51.8057V53.4248Z" fill="#95B2E6"/>
<path d="M51.8057 45.9248H57.4307V49.6748H51.8057V45.9248Z" fill="#95B2E6"/>
<path d="M51.8057 38.4248H57.4307V42.1748H51.8057V38.4248Z" fill="#95B2E6"/>
<path d="M51.8057 30.9248H57.4307V34.6748H51.8057V30.9248Z" fill="#95B2E6"/>
<path d="M17.8057 55.0529L28.6858 47.7999L17.8057 40.5469V55.0529Z" fill="#D9E5FF"/>
</g>
</g>
<defs>
<clipPath id="clip0_635_19762">
<rect width="64" height="64" fill="white" transform="translate(0.670898 0.675781)"/>
</clipPath>
<clipPath id="clip1_635_19762">
<rect width="64" height="64" fill="white" transform="translate(0.928711 0.675781)"/>
</clipPath>
</defs>
</svg>
