<svg width="65" height="65" viewBox="0 0 65 65" fill="none" xmlns="http://www.w3.org/2000/svg">
<g clip-path="url(#clip0_635_19696)">
<path d="M32.3284 27.2298C40.3098 27.2298 46.78 20.7595 46.78 12.778C46.78 4.79646 40.3098 -1.67383 32.3284 -1.67383C24.3469 -1.67383 17.8767 4.79646 17.8767 12.778C17.8767 20.7595 24.3469 27.2298 32.3284 27.2298Z" fill="#F8EA69"/>
<path d="M41.0367 24.3116C38.6156 26.1432 35.5994 27.229 32.3282 27.229C24.3463 27.229 17.8767 20.7594 17.8767 12.7774C17.8767 6.64089 21.7003 1.39821 27.0965 -0.69812C26.6593 5.17942 27.3159 18.5012 41.0367 24.3116Z" fill="#FFF05F"/>
<path d="M40.5845 12.7761C40.5845 16.4284 38.2141 19.5268 34.9279 20.6168C34.1108 20.8882 33.2361 21.0349 32.3272 21.0349C27.766 21.0349 24.0684 17.3374 24.0684 12.776C24.0684 10.0958 25.3447 7.71428 27.3231 6.20623C28.7119 5.14649 30.4462 4.51855 32.3272 4.51855C36.8884 4.51869 40.5845 8.21487 40.5845 12.7761Z" fill="#FFF05F"/>
<path d="M34.9279 20.6186C34.1108 20.89 33.2361 21.0367 32.3272 21.0367C27.766 21.0367 24.0684 17.3391 24.0684 12.7778C24.0684 10.0975 25.3447 7.71605 27.3231 6.20801C28.0018 10.9175 29.9663 16.4358 34.9279 20.6186Z" fill="#DFCA00"/>
<path d="M60.2021 24.4238C60.2049 24.4197 53.8833 38.0131 39.4126 45.6577C38.834 45.9635 38.2417 46.2609 37.6358 46.5461C36.9174 46.8848 36.4608 47.6086 36.4608 48.4024V62.3247C36.4608 63.1034 36.0208 63.8164 35.3243 64.1646L31.1784 66.2375C29.8115 66.9203 28.202 65.9263 28.202 64.3976V48.4024C28.202 47.6086 27.7454 46.8846 27.027 46.5461C11.2953 39.1222 4.46094 24.4238 4.46094 24.4238H60.2021Z" fill="#73DA8C"/>
<path d="M39.4126 45.6577C38.834 45.9635 38.2417 46.2609 37.6358 46.5461C36.9174 46.8848 36.4608 47.6086 36.4608 48.4024V62.3247C36.4608 63.1034 36.0208 63.8164 35.3243 64.1646L31.1784 66.2375C29.8115 66.9203 28.202 65.9263 28.202 64.3976V48.4024C28.202 47.6086 27.7454 46.8846 27.027 46.5461C11.2953 39.1222 4.46094 24.4238 4.46094 24.4238H23.7958C22.7374 31.1704 23.0624 43.7041 39.4126 45.6577Z" fill="#29CE69"/>
<path d="M64.3281 22.0689C64.3281 24.3421 62.4854 26.197 60.1987 26.197H4.45753C2.17626 26.197 0.328125 24.3489 0.328125 22.0689C0.328125 19.7944 2.17081 17.9395 4.45753 17.9395H60.1986C62.48 17.9395 64.3281 19.7876 64.3281 22.0689Z" fill="#29CE69"/>
<path d="M29.9331 26.197H4.45753C2.17626 26.197 0.328125 24.3489 0.328125 22.0689C0.328125 19.7944 2.17081 17.9395 4.45753 17.9395H28.6525C27.6114 20.6736 27.8915 24.2207 29.9331 26.197Z" fill="#00C140"/>
<path d="M23.7665 35.0638C23.1986 35.0638 22.7383 34.6034 22.7383 34.0356V32.3904C22.7383 31.8225 23.1986 31.3622 23.7665 31.3622C24.3344 31.3622 24.7947 31.8226 24.7947 32.3904V34.0356C24.7948 34.6035 24.3344 35.0638 23.7665 35.0638Z" fill="#495560"/>
<path d="M40.8876 35.0638C40.3196 35.0638 39.8594 34.6034 39.8594 34.0356V32.3904C39.8594 31.8225 40.3196 31.3622 40.8876 31.3622C41.4555 31.3622 41.9158 31.8226 41.9158 32.3904V34.0356C41.9158 34.6035 41.4555 35.0638 40.8876 35.0638Z" fill="#495560"/>
<path d="M36.3188 33.9872C35.7509 33.9872 35.2906 34.4476 35.2906 35.0154C35.2906 35.5413 34.8628 35.9689 34.3369 35.9689C33.8111 35.9689 33.3833 35.5411 33.3833 35.0154C33.3833 34.4475 32.923 33.9872 32.3551 33.9872C31.7872 33.9872 31.3269 34.4476 31.3269 35.0154C31.3269 35.5413 30.8991 35.9689 30.3733 35.9689C29.8475 35.9689 29.4197 35.5411 29.4197 35.0154C29.4197 34.4475 28.9594 33.9872 28.3915 33.9872C27.8236 33.9872 27.3633 34.4476 27.3633 35.0154C27.3633 36.6751 28.7136 38.0255 30.3733 38.0255C31.1318 38.0255 31.8252 37.7428 32.3552 37.2782C32.8851 37.7428 33.5785 38.0255 34.3371 38.0255C35.9968 38.0255 37.3471 36.6751 37.3471 35.0154C37.3471 34.4476 36.8869 33.9872 36.3188 33.9872Z" fill="#495560"/>
</g>
<defs>
<clipPath id="clip0_635_19696">
<rect width="64" height="64" fill="white" transform="translate(0.802734 0.675781)"/>
</clipPath>
</defs>
</svg>
