<svg width="64" height="65" viewBox="0 0 64 65" fill="none" xmlns="http://www.w3.org/2000/svg">
<g clip-path="url(#clip0_635_19716)">
<g clip-path="url(#clip1_635_19716)">
<path d="M39.4579 27.6023H35.778C37.3376 27.6023 38.6019 26.338 38.6019 24.7784V21.2243C38.6019 19.6646 37.3376 18.4004 35.778 18.4004H5.23162C3.67212 18.4004 2.40774 19.6646 2.40774 21.2243V24.7784C2.40774 26.338 3.67199 27.6023 5.23162 27.6023H8.91149C7.35199 27.6023 6.08762 28.8665 6.08762 30.4261V33.9803C6.08762 35.5355 7.34487 36.7968 8.89837 36.8038H3.67837C2.11874 36.8038 0.854492 38.068 0.854492 39.6275V43.1816C0.854492 44.7413 2.11874 46.0055 3.67837 46.0055H6.25387C4.69424 46.0055 3.42999 47.2698 3.42999 48.8294V52.3835C3.42999 53.9431 4.69424 55.2074 6.25387 55.2074H4.32224C2.76262 55.2074 1.49837 56.4716 1.49837 58.0313V61.5854C1.49837 63.145 2.76262 64.4093 4.32224 64.4093H34.8686C36.4281 64.4093 37.6925 63.145 37.6925 61.5854V58.0313C37.6925 56.4716 36.4282 55.2074 34.8686 55.2074H36.8002C38.3599 55.2074 39.6241 53.9431 39.6241 52.3835V48.8294C39.6241 47.2698 38.3599 46.0055 36.8002 46.0055H34.2247C35.7842 46.0055 37.0486 44.7413 37.0486 43.1816V39.6275C37.0486 38.0724 35.7914 36.811 34.2379 36.804H39.4579C41.0175 36.804 42.2817 35.5398 42.2817 33.9801V30.426C42.2817 28.8665 41.0175 27.6023 39.4579 27.6023Z" fill="#FFF05F"/>
<path d="M37.0486 40.9365V43.1823C37.0486 44.7416 35.7841 46.005 34.2246 46.005H3.67849C2.11912 46.005 0.854492 44.7418 0.854492 43.1823V40.9365C0.854492 42.4959 2.11899 43.7605 3.67849 43.7605H34.2246C35.7841 43.7605 37.0486 42.496 37.0486 40.9365Z" fill="#FFB221"/>
<path d="M42.2813 31.7372V33.9829C42.2813 35.5423 41.0168 36.8057 39.4573 36.8057H8.91116C7.35178 36.8057 6.08716 35.5424 6.08716 33.9829V31.7372C6.08716 33.2966 7.35166 34.5612 8.91116 34.5612H39.4573C41.0168 34.5612 42.2813 33.2967 42.2813 31.7372Z" fill="#FFB221"/>
<path d="M38.6014 22.5342V24.7799C38.6014 26.3393 37.3369 27.6027 35.7774 27.6027H5.23123C3.67185 27.6027 2.40723 26.3394 2.40723 24.7799V22.5342C2.40723 24.0936 3.67173 25.3582 5.23123 25.3582H35.7774C37.3369 25.3582 38.6014 24.0936 38.6014 22.5342Z" fill="#FFB221"/>
<path d="M39.6287 50.1387V52.3844C39.6287 53.9438 38.3642 55.2072 36.8047 55.2072H6.25857C4.6992 55.2072 3.43457 53.9439 3.43457 52.3844V50.1387C3.43457 51.698 4.69907 52.9627 6.25857 52.9627H36.8047C38.3641 52.9627 39.6287 51.698 39.6287 50.1387Z" fill="#FFB221"/>
<path d="M37.6951 59.3418V61.5875C37.6951 63.1469 36.4306 64.4103 34.8711 64.4103H4.32498C2.7656 64.4103 1.50098 63.147 1.50098 61.5875V59.3418C1.50098 60.9012 2.76548 62.1658 4.32498 62.1658H34.8711C36.4306 62.1657 37.6951 60.9012 37.6951 59.3418Z" fill="#FFB221"/>
<path d="M9.53987 36.8041H14.7885C13.2295 36.8041 11.965 35.5396 11.965 33.9806V30.4258C11.965 28.8668 13.2295 27.6023 14.7885 27.6023H11.1061C9.54824 27.6009 8.28512 26.337 8.28512 24.7788V21.2239C8.28512 19.6649 9.54962 18.4004 11.1086 18.4004H5.23274C3.67237 18.4004 2.40787 19.6649 2.40787 21.2239V24.7788C2.40787 26.3378 3.67237 27.6023 5.23274 27.6023H8.91012C7.35087 27.6036 6.08774 28.8675 6.08774 30.4258V33.9806C6.08774 35.5344 7.34387 36.7954 8.89712 36.8038H3.67937C2.11899 36.8038 0.854492 38.0683 0.854492 39.6273V43.1821C0.854492 44.7411 2.11899 46.0056 3.67937 46.0056H6.25199C4.69287 46.0071 3.42987 47.271 3.42987 48.8291V52.384C3.42987 53.9421 4.69287 55.2059 6.25199 55.2075H4.32324C2.76287 55.2075 1.49837 56.472 1.49837 58.031V61.5859C1.49837 63.1449 2.76287 64.4094 4.32324 64.4094H10.1991C8.64012 64.4094 7.37562 63.1449 7.37562 61.5859V58.031C7.37562 56.4729 8.63862 55.2091 10.1964 55.2075H12.1307C10.5717 55.2075 9.30724 53.943 9.30724 52.384V48.8291C9.30724 47.2701 10.5717 46.0056 12.1307 46.0056H9.55249C7.99474 46.0041 6.73174 44.7403 6.73174 43.1821V39.6273C6.73187 38.0735 7.98799 36.8126 9.53987 36.8041Z" fill="#FFB221"/>
<path d="M46.7622 64.411C56.7569 64.411 64.8593 56.3087 64.8593 46.3139C64.8593 36.3192 56.7569 28.2168 46.7622 28.2168C36.7674 28.2168 28.665 36.3192 28.665 46.3139C28.665 56.3087 36.7674 64.411 46.7622 64.411Z" fill="#FFF05F"/>
<path d="M48.2927 64.346C47.7888 64.3897 47.278 64.4105 46.7619 64.4105C36.7668 64.4105 28.665 56.3088 28.665 46.3137C28.665 36.3185 36.7668 28.2168 46.7619 28.2168C47.2779 28.2168 47.7888 28.2377 48.2927 28.2813C39.0124 29.0572 31.7248 36.8328 31.7248 46.3135C31.7248 55.7943 39.0124 63.5702 48.2927 64.346Z" fill="#FFB221"/>
<path d="M46.7602 58.533C53.5092 58.533 58.9803 53.0619 58.9803 46.3129C58.9803 39.5639 53.5092 34.0928 46.7602 34.0928C40.0112 34.0928 34.54 39.5639 34.54 46.3129C34.54 53.0619 40.0112 58.533 46.7602 58.533Z" fill="#FFB221"/>
<path d="M48.6632 45.3101C48.3215 45.2106 47.9714 45.106 47.6225 44.9969V40.7173C48.6595 40.8705 49.2788 41.3073 49.3255 41.3411C49.7499 41.6583 50.3515 41.5743 50.6726 41.1516C50.9953 40.7269 50.9125 40.121 50.4878 39.7984C50.4256 39.7511 49.3583 38.9604 47.6225 38.7738V37.9394C47.6225 37.406 47.1901 36.9736 46.6567 36.9736C46.1234 36.9736 45.691 37.406 45.691 37.9394V38.8358C45.5048 38.8673 45.3144 38.9064 45.1199 38.9546C43.4918 39.3586 42.276 40.6009 42.0229 42.1194C41.8094 43.4004 42.332 44.6194 43.3866 45.3008C43.9667 45.6755 44.6923 46.0193 45.691 46.3836V51.8044C44.6884 51.7621 44.0255 51.5933 42.9349 51.0056C42.465 50.7526 41.8792 50.9283 41.6265 51.3979C41.3735 51.8675 41.549 52.4533 42.0186 52.7063C43.4605 53.483 44.394 53.6915 45.691 53.7373V54.6856C45.691 55.219 46.1234 55.6514 46.6567 55.6514C47.1901 55.6514 47.6225 55.219 47.6225 54.6856V53.6745C50.1668 53.2945 51.7173 51.488 51.9663 49.707C52.2466 47.7016 50.9501 45.9758 48.6632 45.3101ZM44.4346 43.6781C43.8532 43.3026 43.8867 42.685 43.9281 42.4369C44.0287 41.8335 44.5167 41.0943 45.5849 40.8293C45.6206 40.8204 45.6556 40.813 45.691 40.805V44.3115C45.2119 44.1123 44.7802 43.9014 44.4346 43.6781ZM50.0534 49.4394C49.9176 50.4098 49.0569 51.3918 47.6225 51.7093V47.0165C47.7848 47.0653 47.9506 47.1145 48.1232 47.1648C49.4961 47.5643 50.1995 48.3934 50.0534 49.4394Z" fill="#FFF05F"/>
<path d="M25.3023 39.7009V24.8025H27.8489C30.9408 24.8025 32.8731 21.4554 31.327 18.7779L23.1646 4.64179C21.6188 1.96454 17.7545 1.96441 16.2085 4.64166L8.04526 18.7778C6.49901 21.4553 8.43138 24.8027 11.5233 24.8027H14.0711V39.701C14.0711 41.0969 15.2028 42.2284 16.5985 42.2284H22.7748C24.1708 42.2283 25.3023 41.0968 25.3023 39.7009Z" fill="#29CE69"/>
<path d="M18.9238 42.2277H16.5983C15.2029 42.2277 14.0717 41.0965 14.0717 39.701V24.801H11.5229C8.43105 24.801 6.49855 21.4545 8.0458 18.7764L16.2078 4.64066C16.9808 3.30229 18.3336 2.63379 19.6862 2.63379C18.7801 2.63379 17.8738 3.30229 17.3568 4.64066L11.8886 18.7765C10.8518 21.4545 12.1471 24.8012 14.2179 24.8012H15.2651C16.3504 24.8012 17.2303 25.681 17.2303 26.7664V39.6998C17.2303 41.0957 17.9889 42.2277 18.9238 42.2277Z" fill="#80DDB7"/>
<path d="M47.9666 21.0099L47.8928 20.7342C47.6323 19.762 48.169 18.754 49.1211 18.4276L52.0499 17.4235C53.0989 17.0639 54.2331 17.6679 54.5201 18.7391L54.7036 19.4241C54.9906 20.4954 54.3104 21.5855 53.2221 21.7986L50.1838 22.3934C49.196 22.5866 48.2271 21.9821 47.9666 21.0099Z" fill="#F7F493"/>
<path d="M43.287 12.7583L43.0852 12.5566C42.3735 11.8448 42.3343 10.7036 42.9957 9.94472L45.0301 7.61072C45.7587 6.77472 47.0431 6.73072 47.8272 7.51484L48.3287 8.01634C49.1128 8.80047 49.0688 10.0848 48.2328 10.8135L45.8987 12.8478C45.14 13.5092 43.9987 13.4701 43.287 12.7583Z" fill="#F7F493"/>
<path d="M35.108 7.95097L34.8324 7.87709C33.8602 7.61659 33.2557 6.64772 33.449 5.65997L34.0438 2.62159C34.2568 1.53322 35.347 0.852966 36.4183 1.14009L37.1033 1.32359C38.1745 1.61059 38.7785 2.74484 38.4189 3.79384L37.4148 6.72259C37.0883 7.67472 36.0803 8.21147 35.108 7.95097Z" fill="#F7F493"/>
</g>
</g>
<defs>
<clipPath id="clip0_635_19716">
<rect width="64" height="64" fill="white" transform="translate(0.00488281 0.675781)"/>
</clipPath>
<clipPath id="clip1_635_19716">
<rect width="64" height="64" fill="white" transform="translate(0.856445 0.741211)"/>
</clipPath>
</defs>
</svg>
