<svg width="64" height="65" viewBox="0 0 64 65" fill="none" xmlns="http://www.w3.org/2000/svg">
<g clip-path="url(#clip0_635_19745)">
<path d="M64.0439 32.6758C64.0439 50.3489 49.7171 64.6758 32.0439 64.6758C14.3708 64.6758 0.0439453 50.3489 0.0439453 32.6758C0.0439453 15.0027 14.3708 0.675781 32.0439 0.675781C49.7171 0.675781 64.0439 15.0027 64.0439 32.6758Z" fill="#3CAF96"/>
<path d="M42.6689 53.8008C42.6689 59.6688 37.9119 64.4258 32.0439 64.4258C26.1759 64.4258 21.4189 59.6688 21.4189 53.8008C21.4189 49.7407 23.6971 46.2138 27.0439 44.4252V35.6758H37.0439V44.4252C40.3908 46.2138 42.6689 49.7407 42.6689 53.8008Z" fill="#415F78"/>
<path d="M33.8564 64.2687C33.2671 64.37 32.6622 64.4258 32.0439 64.4258C26.1759 64.4258 21.4189 59.6688 21.4189 53.8008C21.4189 49.7402 23.6977 46.2135 27.0457 44.4258H27.0439V35.6758H30.0439V44.7899C27.0418 46.6667 25.0439 49.9992 25.0439 53.8008C25.0439 59.0505 28.8523 63.408 33.8564 64.2687Z" fill="#3C5064"/>
<path d="M61.5439 17.5508V22.5508C61.5439 31.8705 53.9888 39.4258 44.6689 39.4258H19.4189C10.0991 39.4258 2.54395 31.8705 2.54395 22.5508V17.5508C2.54395 8.23091 10.0991 0.675781 19.4189 0.675781H44.6689C53.9888 0.675781 61.5439 8.23091 61.5439 17.5508ZM43.7539 48.1593C43.0459 47.6973 42.1503 47.6413 41.3776 47.984C39.2886 48.9107 36.9764 49.4258 34.5439 49.4258H29.5439C27.1114 49.4258 24.7993 48.9107 22.7103 47.984C21.9376 47.6413 21.0419 47.6973 20.3339 48.1593C16.7461 50.5007 14.1047 54.1705 13.1064 58.4707C18.4092 62.3703 24.9569 64.6758 32.0439 64.6758C39.1309 64.6758 45.6787 62.3703 50.9814 58.4707C49.9832 54.1705 47.3418 50.5007 43.7539 48.1593Z" fill="#C5E9FF"/>
<path d="M52.7939 11.9258V28.1758C52.7939 30.2469 51.1151 31.9258 49.0439 31.9258H15.0439C12.9728 31.9258 11.2939 30.2469 11.2939 28.1758V11.9258C11.2939 9.85466 12.9728 8.17578 15.0439 8.17578H49.0439C51.1151 8.17578 52.7939 9.85466 52.7939 11.9258ZM26.2939 5.67578H37.7939C39.8651 5.67578 41.5439 3.99691 41.5439 1.92578V0.675781H22.5439V1.92578C22.5439 3.99691 24.2228 5.67578 26.2939 5.67578Z" fill="#0F77FF"/>
<path d="M14.7939 11.9258V28.1758C14.7939 30.2469 16.4728 31.9258 18.5439 31.9258H15.0439C12.9728 31.9258 11.2939 30.2469 11.2939 28.1758V11.9258C11.2939 9.85466 12.9728 8.17578 15.0439 8.17578H18.5439C16.4728 8.17578 14.7939 9.85466 14.7939 11.9258ZM32.1689 1.92578C31.4786 1.92578 30.9189 2.48541 30.9189 3.17578C30.9189 3.86616 31.4786 4.42578 32.1689 4.42578C32.8593 4.42578 33.4189 3.86616 33.4189 3.17578C33.4189 2.48541 32.8593 1.92578 32.1689 1.92578ZM27.6689 1.92578C26.9786 1.92578 26.4189 2.48541 26.4189 3.17578C26.4189 3.86616 26.9786 4.42578 27.6689 4.42578C28.3593 4.42578 28.9189 3.86616 28.9189 3.17578C28.9189 2.48541 28.3593 1.92578 27.6689 1.92578ZM36.4189 1.92578C35.7286 1.92578 35.1689 2.48541 35.1689 3.17578C35.1689 3.86616 35.7286 4.42578 36.4189 4.42578C37.1093 4.42578 37.6689 3.86616 37.6689 3.17578C37.6689 2.48541 37.1093 1.92578 36.4189 1.92578Z" fill="#0F4D9E"/>
<path d="M23.2939 13.8008C19.8422 13.8008 17.0439 16.599 17.0439 20.0508C17.0439 23.5025 19.8422 26.3008 23.2939 26.3008C26.7457 26.3008 29.5439 23.5025 29.5439 20.0508C29.5439 16.599 26.7457 13.8008 23.2939 13.8008ZM23.2939 23.8008C21.2228 23.8008 19.5439 22.1219 19.5439 20.0508C19.5439 17.9797 21.2228 16.3008 23.2939 16.3008C25.3651 16.3008 27.0439 17.9797 27.0439 20.0508C27.0439 22.1219 25.3651 23.8008 23.2939 23.8008ZM40.7939 13.8008C37.3422 13.8008 34.5439 16.599 34.5439 20.0508C34.5439 23.5025 37.3422 26.3008 40.7939 26.3008C44.2457 26.3008 47.0439 23.5025 47.0439 20.0508C47.0439 16.599 44.2457 13.8008 40.7939 13.8008ZM40.7939 23.8008C38.7228 23.8008 37.0439 22.1219 37.0439 20.0508C37.0439 17.9797 38.7228 16.3008 40.7939 16.3008C42.8651 16.3008 44.5439 17.9797 44.5439 20.0508C44.5439 22.1219 42.8651 23.8008 40.7939 23.8008Z" fill="#50C8C8"/>
<path d="M22.5569 47.922C19.4014 51.3808 16.9966 55.5352 15.5984 60.129C14.7411 59.6142 13.9093 59.061 13.1064 58.4707C14.1047 54.1705 16.7461 50.5007 20.3339 48.1593C20.9956 47.7275 21.8209 47.6505 22.5569 47.922ZM7.29395 22.5508V17.5508C7.29395 8.23091 14.8491 0.675781 24.1689 0.675781H19.4189C10.0991 0.675781 2.54395 8.23091 2.54395 17.5508V22.5508C2.54395 31.8705 10.0991 39.4258 19.4189 39.4258H24.1689C14.8491 39.4258 7.29395 31.8705 7.29395 22.5508Z" fill="#B4D7DC"/>
<path d="M32.0439 64.6764C29.2744 64.6764 26.5879 64.3229 24.0253 63.6611C23.1646 62.244 22.6689 60.5806 22.6689 58.8014V47.9678C22.6827 47.9735 22.6966 47.9785 22.7103 47.9846C24.7993 48.9113 27.1113 49.4264 29.5439 49.4264H34.5439C36.9764 49.4264 39.2886 48.9113 41.3776 47.9846C41.3912 47.9786 41.4052 47.9736 41.4189 47.9678V58.8014C41.4189 60.5806 40.9233 62.244 40.0626 63.6611C37.4999 64.3229 34.8134 64.6764 32.0439 64.6764Z" fill="#82E1E1"/>
<path d="M32.0439 54.4258C30.3181 54.4258 28.9189 55.8249 28.9189 57.5508C28.9189 59.2767 30.3181 60.6758 32.0439 60.6758C33.7698 60.6758 35.1689 59.2767 35.1689 57.5508C35.1689 55.8249 33.7698 54.4258 32.0439 54.4258ZM32.0439 59.4258C31.0084 59.4258 30.1689 58.5863 30.1689 57.5508C30.1689 56.7348 30.6912 56.0424 31.4189 55.7848V57.5508C31.4189 57.8959 31.6988 58.1758 32.0439 58.1758C32.3891 58.1758 32.6689 57.8959 32.6689 57.5508V55.7848C33.3967 56.0424 33.9189 56.7348 33.9189 57.5508C33.9189 58.5863 33.0794 59.4258 32.0439 59.4258Z" fill="#E1FFFA"/>
</g>
<defs>
<clipPath id="clip0_635_19745">
<rect width="64" height="64" fill="white" transform="translate(0.0439453 0.675781)"/>
</clipPath>
</defs>
</svg>
