<svg width="25" height="25" viewBox="0 0 25 25" fill="none" xmlns="http://www.w3.org/2000/svg">
<path d="M21.9827 4.41455C21.9827 2.99297 20.8261 1.83643 19.4045 1.83643H18.8889V3.9458C18.8889 4.33411 18.5741 4.64893 18.1858 4.64893C17.7975 4.64893 17.4827 4.33411 17.4827 3.9458V1.83643H14.3889V3.9458C14.3889 4.33411 14.0741 4.64893 13.6858 4.64893C13.2975 4.64893 12.9827 4.33411 12.9827 3.9458V1.83643H9.88892V3.9458C9.88892 4.33411 9.5741 4.64893 9.18579 4.64893C8.79748 4.64893 8.48267 4.33411 8.48267 3.9458V1.83643H5.38892V3.9458C5.38892 4.33411 5.0741 4.64893 4.68579 4.64893C4.29748 4.64893 3.98267 4.33411 3.98267 3.9458V1.83643H3.46704C2.04546 1.83643 0.888916 2.99297 0.888916 4.41455V6.52393H21.9827V4.41455Z" fill="url(#paint0_linear_635_19554)"/>
<path d="M5.38892 1.1333C5.38892 0.744988 5.0741 0.430176 4.68579 0.430176C4.29748 0.430176 3.98267 0.744988 3.98267 1.1333V1.83643H5.38892V1.1333Z" fill="url(#paint1_linear_635_19554)"/>
<path d="M18.8889 1.1333C18.8889 0.744988 18.5741 0.430176 18.1858 0.430176C17.7975 0.430176 17.4827 0.744988 17.4827 1.1333V1.83643H18.8889V1.1333Z" fill="url(#paint2_linear_635_19554)"/>
<path d="M14.3889 1.1333C14.3889 0.744988 14.0741 0.430176 13.6858 0.430176C13.2975 0.430176 12.9827 0.744988 12.9827 1.1333V1.83643H14.3889V1.1333Z" fill="url(#paint3_linear_635_19554)"/>
<path d="M9.88892 1.1333C9.88892 0.744988 9.5741 0.430176 9.18579 0.430176C8.79748 0.430176 8.48267 0.744988 8.48267 1.1333V1.83643H9.88892V1.1333Z" fill="url(#paint4_linear_635_19554)"/>
<path d="M19.7327 12.7114C20.5227 12.7114 21.2806 12.8518 21.9827 13.1088V7.93018H0.888916V18.4771C0.888916 19.6402 1.83518 20.5864 2.99829 20.5864H13.3021C13.2157 20.1622 13.1702 19.7233 13.1702 19.2739C13.1702 15.6554 16.1141 12.7114 19.7327 12.7114ZM17.1077 10.3911H18.2795C18.6679 10.3911 18.9827 10.7059 18.9827 11.0942C18.9827 11.4826 18.6679 11.7974 18.2795 11.7974H17.1077C16.7194 11.7974 16.4045 11.4826 16.4045 11.0942C16.4045 10.7059 16.7194 10.3911 17.1077 10.3911ZM12.9358 10.3911H14.1077C14.496 10.3911 14.8108 10.7059 14.8108 11.0942C14.8108 11.4826 14.496 11.7974 14.1077 11.7974H12.9358C12.5475 11.7974 12.2327 11.4826 12.2327 11.0942C12.2327 10.7059 12.5475 10.3911 12.9358 10.3911ZM5.76392 18.1255H4.59204C4.20373 18.1255 3.88892 17.8107 3.88892 17.4224C3.88892 17.0341 4.20373 16.7192 4.59204 16.7192H5.76392C6.15223 16.7192 6.46704 17.0341 6.46704 17.4224C6.46704 17.8107 6.15223 18.1255 5.76392 18.1255ZM5.76392 14.9614H4.59204C4.20373 14.9614 3.88892 14.6466 3.88892 14.2583C3.88892 13.87 4.20373 13.5552 4.59204 13.5552H5.76392C6.15223 13.5552 6.46704 13.87 6.46704 14.2583C6.46704 14.6466 6.15223 14.9614 5.76392 14.9614ZM9.93579 18.1255H8.76392C8.3756 18.1255 8.06079 17.8107 8.06079 17.4224C8.06079 17.0341 8.3756 16.7192 8.76392 16.7192H9.93579C10.3241 16.7192 10.6389 17.0341 10.6389 17.4224C10.6389 17.8107 10.3241 18.1255 9.93579 18.1255ZM9.93579 14.9614H8.76392C8.3756 14.9614 8.06079 14.6466 8.06079 14.2583C8.06079 13.87 8.3756 13.5552 8.76392 13.5552H9.93579C10.3241 13.5552 10.6389 13.87 10.6389 14.2583C10.6389 14.6466 10.3241 14.9614 9.93579 14.9614ZM9.93579 11.7974H8.76392C8.3756 11.7974 8.06079 11.4826 8.06079 11.0942C8.06079 10.7059 8.3756 10.3911 8.76392 10.3911H9.93579C10.3241 10.3911 10.6389 10.7059 10.6389 11.0942C10.6389 11.4826 10.3241 11.7974 9.93579 11.7974ZM12.2327 14.2583C12.2327 13.87 12.5475 13.5552 12.9358 13.5552H14.1077C14.496 13.5552 14.8108 13.87 14.8108 14.2583C14.8108 14.6466 14.496 14.9614 14.1077 14.9614H12.9358C12.5475 14.9614 12.2327 14.6466 12.2327 14.2583Z" fill="url(#paint5_linear_635_19554)"/>
<path d="M19.7327 14.1177C16.8895 14.1177 14.5764 16.4308 14.5764 19.2739C14.5764 22.1171 16.8895 24.4302 19.7327 24.4302C22.5758 24.4302 24.8889 22.1171 24.8889 19.2739C24.8889 16.4308 22.5758 14.1177 19.7327 14.1177ZM22.0764 19.9771H19.7327C19.3444 19.9771 19.0295 19.6622 19.0295 19.2739V16.9302C19.0295 16.5419 19.3444 16.2271 19.7327 16.2271C20.121 16.2271 20.4358 16.5419 20.4358 16.9302V18.5708H22.0764C22.4647 18.5708 22.7795 18.8856 22.7795 19.2739C22.7795 19.6622 22.4647 19.9771 22.0764 19.9771Z" fill="url(#paint6_linear_635_19554)"/>
<defs>
<linearGradient id="paint0_linear_635_19554" x1="0.888916" y1="1.83643" x2="21.885" y2="6.92694" gradientUnits="userSpaceOnUse">
<stop stop-color="#5B58F5"/>
<stop offset="1" stop-color="#0F77FF"/>
</linearGradient>
<linearGradient id="paint1_linear_635_19554" x1="3.98267" y1="0.430176" x2="5.46039" y2="0.509793" gradientUnits="userSpaceOnUse">
<stop stop-color="#5B58F5"/>
<stop offset="1" stop-color="#0F77FF"/>
</linearGradient>
<linearGradient id="paint2_linear_635_19554" x1="17.4827" y1="0.430176" x2="18.9604" y2="0.509793" gradientUnits="userSpaceOnUse">
<stop stop-color="#5B58F5"/>
<stop offset="1" stop-color="#0F77FF"/>
</linearGradient>
<linearGradient id="paint3_linear_635_19554" x1="12.9827" y1="0.430176" x2="14.4604" y2="0.509793" gradientUnits="userSpaceOnUse">
<stop stop-color="#5B58F5"/>
<stop offset="1" stop-color="#0F77FF"/>
</linearGradient>
<linearGradient id="paint4_linear_635_19554" x1="8.48267" y1="0.430176" x2="9.96039" y2="0.509793" gradientUnits="userSpaceOnUse">
<stop stop-color="#5B58F5"/>
<stop offset="1" stop-color="#0F77FF"/>
</linearGradient>
<linearGradient id="paint5_linear_635_19554" x1="0.888916" y1="7.93018" x2="22.9413" y2="9.91041" gradientUnits="userSpaceOnUse">
<stop stop-color="#5B58F5"/>
<stop offset="1" stop-color="#0F77FF"/>
</linearGradient>
<linearGradient id="paint6_linear_635_19554" x1="14.5764" y1="14.1177" x2="25.4131" y2="14.7015" gradientUnits="userSpaceOnUse">
<stop stop-color="#5B58F5"/>
<stop offset="1" stop-color="#0F77FF"/>
</linearGradient>
</defs>
</svg>
