<svg width="24" height="25" viewBox="0 0 24 25" fill="none" xmlns="http://www.w3.org/2000/svg">
<g clip-path="url(#clip0_635_19660)">
<path d="M16.2085 7.61487H23.9985V2.35156H14.7141V8.31702L16.2085 7.61487Z" fill="url(#paint0_linear_635_19660)"/>
<path d="M7.8031 14.7129H7.00791C6.09417 14.7129 5.35083 15.4562 5.35083 16.37V17.2209H9.46022V16.37C9.46017 15.4562 8.71683 14.7129 7.8031 14.7129Z" fill="url(#paint1_linear_635_19660)"/>
<path d="M8.10385 12.6082C8.10385 12.2229 7.79035 11.9094 7.40499 11.9094C7.01968 11.9094 6.70618 12.2229 6.70618 12.6082C6.70618 12.9936 7.01968 13.3071 7.40499 13.3071C7.79035 13.3071 8.10385 12.9936 8.10385 12.6082Z" fill="url(#paint2_linear_635_19660)"/>
<path d="M12.7029 19.5223H11.2967V18.6279H-0.000732422V21.8294H23.9993V18.6279H12.7029V19.5223Z" fill="url(#paint3_linear_635_19660)"/>
<path d="M16.5232 9.02112L13.3087 10.5315V3.7579H1.40564V17.2213H3.94486V16.3704C3.94486 15.1957 4.60987 14.1739 5.58286 13.6601C5.40337 13.3504 5.30006 12.9912 5.30006 12.6082C5.30006 11.4475 6.24441 10.5032 7.40512 10.5032C8.56584 10.5032 9.51023 11.4475 9.51023 12.6082C9.51023 12.991 9.40701 13.3499 9.22772 13.6595C10.2013 14.1732 10.8667 15.1953 10.8667 16.3704V17.2213H22.593V9.02112H16.5232ZM10.1636 8.47615H4.64798V7.0699H10.1636V8.47615H10.1636ZM20.0147 15.3461H14.4991V13.9399H20.0147V15.3461ZM20.0147 12.5334H14.4991V11.1272H20.0147V12.5334Z" fill="url(#paint4_linear_635_19660)"/>
</g>
<defs>
<linearGradient id="paint0_linear_635_19660" x1="14.7141" y1="2.35156" x2="24.4304" y2="3.1663" gradientUnits="userSpaceOnUse">
<stop stop-color="#5B58F5"/>
<stop offset="1" stop-color="#0F77FF"/>
</linearGradient>
<linearGradient id="paint1_linear_635_19660" x1="5.35083" y1="14.7129" x2="9.64814" y2="15.0923" gradientUnits="userSpaceOnUse">
<stop stop-color="#5B58F5"/>
<stop offset="1" stop-color="#0F77FF"/>
</linearGradient>
<linearGradient id="paint2_linear_635_19660" x1="6.70618" y1="11.9094" x2="8.17489" y2="11.9886" gradientUnits="userSpaceOnUse">
<stop stop-color="#5B58F5"/>
<stop offset="1" stop-color="#0F77FF"/>
</linearGradient>
<linearGradient id="paint3_linear_635_19660" x1="-0.000732422" y1="18.6279" x2="21.745" y2="27.4109" gradientUnits="userSpaceOnUse">
<stop stop-color="#5B58F5"/>
<stop offset="1" stop-color="#0F77FF"/>
</linearGradient>
<linearGradient id="paint4_linear_635_19660" x1="1.40564" y1="3.7579" x2="23.5752" y2="5.63761" gradientUnits="userSpaceOnUse">
<stop stop-color="#5B58F5"/>
<stop offset="1" stop-color="#0F77FF"/>
</linearGradient>
<clipPath id="clip0_635_19660">
<rect width="24" height="24" fill="white" transform="translate(-0.000732422 0.0898438)"/>
</clipPath>
</defs>
</svg>
