<svg width="24" height="25" viewBox="0 0 24 25" fill="none" xmlns="http://www.w3.org/2000/svg">
<g clip-path="url(#clip0_635_19650)">
<path d="M16.8749 10.0292L21.6794 7.38759C22.8111 6.76503 22.8106 5.13466 21.6794 4.51229L14.0091 0.294638C12.9161 -0.30613 11.5784 0.48342 11.5784 1.73238V3.65261H12.4919C14.9087 3.65261 16.8749 5.61897 16.8749 8.03578V10.0292Z" fill="url(#paint0_linear_635_19650)"/>
<path d="M12.4915 5.05908H2.97717C1.33563 5.05908 0.000244141 6.39447 0.000244141 8.03601V10.6839H4.86572C5.51483 9.80352 6.55871 9.23077 7.73425 9.23077C8.90997 9.23077 9.95385 9.80352 10.603 10.6839H15.4684V8.03601C15.4684 6.39447 14.133 5.05908 12.4915 5.05908ZM11.9997 9.27728C11.6117 9.27728 11.2967 8.96216 11.2967 8.57415C11.2967 8.18597 11.6117 7.87103 11.9997 7.87103C12.3879 7.87103 12.7028 8.18597 12.7028 8.57415C12.7028 8.96216 12.3879 9.27728 11.9997 9.27728Z" fill="url(#paint1_linear_635_19650)"/>
<path d="M4.24188 12.0903H0.000244141V17.5505C0.000244141 19.1921 1.33563 20.5275 2.97717 20.5275H9.18737V16.046C6.55706 17.2264 3.67444 14.9268 4.24188 12.0903Z" fill="url(#paint2_linear_635_19650)"/>
<path d="M11.0081 14.1995H14.8128V12.0903H11.2274C11.3693 12.7995 11.2948 13.5345 11.0081 14.1995Z" fill="url(#paint3_linear_635_19650)"/>
<path d="M7.73443 10.6372C6.54553 10.6372 5.57837 11.6046 5.57837 12.7935C5.57837 13.9822 6.54553 14.9495 7.73443 14.9495C8.92334 14.9495 9.89068 13.9822 9.89068 12.7935C9.89068 11.6097 8.92791 10.6372 7.73443 10.6372Z" fill="url(#paint4_linear_635_19650)"/>
<path d="M11 24.5738H14.5154C14.9036 24.5738 15.2186 24.2589 15.2186 23.8707V16.0898H11V24.5738Z" fill="url(#paint5_linear_635_19650)"/>
<path d="M21.8905 14.2464H19.6416C20.214 13.3479 19.964 12.1484 19.074 11.555C18.2377 10.9972 17.0274 11.0635 16.219 12.2966V24.0898H20.0157C22.2126 24.0898 23.9999 22.3025 23.9999 20.1056V16.3558C23.9999 15.1929 23.0534 14.2464 21.8905 14.2464Z" fill="url(#paint6_linear_635_19650)"/>
</g>
<defs>
<linearGradient id="paint0_linear_635_19650" x1="11.5784" y1="0.0893555" x2="23.0774" y2="0.77184" gradientUnits="userSpaceOnUse">
<stop stop-color="#5B58F5"/>
<stop offset="1" stop-color="#0F77FF"/>
</linearGradient>
<linearGradient id="paint1_linear_635_19650" x1="0.000244141" y1="5.05908" x2="15.9517" y2="7.42251" gradientUnits="userSpaceOnUse">
<stop stop-color="#5B58F5"/>
<stop offset="1" stop-color="#0F77FF"/>
</linearGradient>
<linearGradient id="paint2_linear_635_19650" x1="0.000244141" y1="12.0903" x2="9.64915" y2="12.6564" gradientUnits="userSpaceOnUse">
<stop stop-color="#5B58F5"/>
<stop offset="1" stop-color="#0F77FF"/>
</linearGradient>
<linearGradient id="paint3_linear_635_19650" x1="11.0081" y1="12.0903" x2="14.9803" y2="12.4764" gradientUnits="userSpaceOnUse">
<stop stop-color="#5B58F5"/>
<stop offset="1" stop-color="#0F77FF"/>
</linearGradient>
<linearGradient id="paint4_linear_635_19650" x1="5.57837" y1="10.6372" x2="10.1099" y2="10.8814" gradientUnits="userSpaceOnUse">
<stop stop-color="#5B58F5"/>
<stop offset="1" stop-color="#0F77FF"/>
</linearGradient>
<linearGradient id="paint5_linear_635_19650" x1="11" y1="16.0898" x2="15.4427" y2="16.2089" gradientUnits="userSpaceOnUse">
<stop stop-color="#5B58F5"/>
<stop offset="1" stop-color="#0F77FF"/>
</linearGradient>
<linearGradient id="paint6_linear_635_19650" x1="16.219" y1="11.2192" x2="24.4104" y2="11.486" gradientUnits="userSpaceOnUse">
<stop stop-color="#5B58F5"/>
<stop offset="1" stop-color="#0F77FF"/>
</linearGradient>
<clipPath id="clip0_635_19650">
<rect width="24" height="24" fill="white" transform="translate(0.000244141 0.0893555)"/>
</clipPath>
</defs>
</svg>
